<?xml version="1.0" encoding="utf-8"?>
<!-- Generator: Adobe Illustrator 25.0.0, SVG Export Plug-In . SVG Version: 6.00 Build 0)  -->
<svg version="1.1" id="Layer_1" xmlns="http://www.w3.org/2000/svg" xmlns:xlink="http://www.w3.org/1999/xlink" x="0px" y="0px"
	 viewBox="0 0 1200 1200" style="enable-background:new 0 0 1200 1200;" xml:space="preserve">
<style type="text/css">
	.st0{fill:#E7E7E7;}
	.st1{fill:#002E5D;}
	.st2{fill:#FFFFFF;}
	.st3{fill:#E41E34;}
</style>
<g>
	<path class="st2" d="M337.62,644.27l35.67,62.88h21.81V533.07h23.75c13.69,0,22.62,4.64,27.32,14.19
		c3.99,8.11,3.98,17.97,3.98,23.86v3.91h13.11V476.5h-13.11v3.91c0,5.89,0.01,15.75-3.98,23.86c-4.69,9.55-13.63,14.19-27.32,14.19
		h-23.75V390.79c0-19.81,11.18-29.85,33.23-29.85h22.18c15.01,0,29.91,3.08,43.1,8.92c18.05,10.85,31.97,30.72,33.11,32.38
		l170.16,304.92h21.82v-77.12L563.48,349.59l-0.98-1.76H295.67v13.11h3.91c5.83,0.01,15.74-0.01,23.86,3.98
		c9.55,4.69,14.19,13.63,14.19,27.32V644.27z"/>
	<path class="st2" d="M639.52,347.82v15.04h3.42c27.51,0,53.49,37.24,54.96,39.38l173.04,303.18l0.98,1.73h21.81v-77.14
		L733.65,347.82H639.52z"/>
	<path class="st2" d="M824.68,347.82v14.56h3.42c46.18,0,62.64,32.11,62.64,62.16v25.12h13.6V347.82H824.68z"/>
	<g>
		<rect x="354.53" y="799.46" class="st2" width="7.05" height="7.11"/>
		<path class="st2" d="M511.46,812.33c-6.73,0-12.88,3.46-18.77,11.08l0.77-23.19h-7.05v34.02h-10.26h-1.53h-11.15H462h-11.21h-1.47
			h-11.22h-1.47h-11.21h-1.48h-11.21h-1.47h-11.22h-1.47h-10.39h-2.3h-8.15c0.26-1.35,0.38-2.63,0.38-3.97v-17.81h-7.24v16.98
			c0,4.16-1.03,7.75-3.14,10.76c-2.5,3.4-5.77,5.13-9.81,5.13c-4.1,0-7.37-1.73-9.86-5.13c-2.12-3.01-3.21-6.6-3.21-10.76v-16.98
			h-7.24v17.81c0,6.21,2.05,11.4,6.08,15.63c3.91,4.16,8.65,6.28,14.22,6.28c3.66,0,6.98-0.96,10.13-2.95
			c3.01-1.85,5.38-4.42,7.17-7.69h10.65h2.3h10.39h1.47h11.22h1.47h11.21h1.48h11.21h1.47h11.22h1.47H462h1.48h11.15h1.53h51.57
			c0.2-2.37,0.32-4.55,0.32-6.66C528.05,819.89,522.54,812.33,511.46,812.33z M520.68,834.24h-28.7c4.36-9.1,11.6-15.5,18.83-15.5
			c6.21,0,9.87,5.32,9.87,13.45V834.24z"/>
		<path class="st2" d="M627.61,827.51c0,2.31-0.2,3.85-0.51,4.61c-0.7,1.41-2.18,2.12-4.55,2.12h-4.42h-1.67h-11.02h-1.47h-8.17
			h-1.47h-11.21h-1.48h-11.1h-1.59h-7.18v-7.43c0-8.4-5.51-14.41-13.33-14.41c-8.13,0-14.35,5.77-14.35,14.22
			c0,8.46,6.28,14.93,14.03,14.93h6.85c-1.02,3.4-3.39,4.93-7.11,4.93v5.64c8.32,0,13-3.52,13.97-10.57h7.12h1.59h11.1h1.48h11.21
			h1.47h8.17h1.47h11.02h1.67h5.89c7.18,0,10.76-3.85,10.76-11.6v-29.72h-7.17V827.51z M554.59,834.24h-6.34
			c-3.85,0-6.85-3.59-6.85-8.01c0-4.29,2.69-7.24,6.92-7.24c3.72,0,5.89,2.69,6.27,6.47V834.24z"/>
		<rect x="641.38" y="800.16" class="st2" width="7.11" height="41.38"/>
		<path class="st2" d="M687.39,813.48c-1.67-0.57-2.95-0.83-3.85-0.89c-0.9-0.07-3.14-0.13-6.66-0.13v6.53
			c2.31,0,4.48,0.13,6.47,0.58c6.48,1.41,9.74,6.27,9.74,14.67H669.9v7.3h30.43l0-7.3C700.27,823.29,695.98,816.36,687.39,813.48z"
			/>
		<rect x="706.94" y="800.16" class="st2" width="7.11" height="41.38"/>
		<path class="st2" d="M725.97,808.81h14.22v-4.03h-6.15c-0.77-0.33-1.15-1.09-1.15-2.25c0-1.6,0.64-2.43,1.86-2.43
			c0.83,0,1.41,0.58,1.79,1.67l3.59-1.67c-1.09-2.5-2.88-3.78-5.38-3.78c-3.4,0-6.03,2.76-6.03,6.35c0,0.64,0.13,1.35,0.32,2.12
			h-3.07V808.81z"/>
		<rect x="875.85" y="799.33" class="st2" width="6.98" height="7.11"/>
		<path class="st2" d="M879.37,811.81c-8.52,0-14.47,6.09-14.47,14.8c0,2.76,0.64,5.32,1.85,7.63h-8.84h-1.34h-11.35h-1.47h-12.69
			l0,0l-12.68,0h-11.22h-1.47h-11.21H793h-11.21h-1.47h-11.22h-1.47h-11.1h-1.59h-7.18v-7.43c0-8.4-5.51-14.41-13.33-14.41
			c-8.13,0-14.35,5.77-14.35,14.22c0,8.46,6.28,14.93,14.03,14.93h6.85c-1.02,3.4-3.39,4.93-7.11,4.93v5.64
			c8.32,0,13-3.52,13.97-10.57h7.12h1.59h11.1h1.47h11.22h1.47H793h1.48h11.21h1.47h11.22h1.47h11.21h1.48h11.21h1.47h11.35h1.34
			h21.46c8.58,0,14.35-6.28,14.35-14.73C893.72,818.41,887.9,811.81,879.37,811.81z M740.57,834.24h-6.34
			c-3.85,0-6.86-3.59-6.86-8.01c0-4.29,2.69-7.24,6.92-7.24c3.72,0,5.89,2.69,6.27,6.47V834.24z M879.5,834.94
			c-4.29,0-7.24-3.78-7.24-8.39c0-5,2.75-8.2,6.85-8.2c4.3,0,7.24,3.59,7.24,8.45C886.36,831.55,883.67,834.94,879.5,834.94z"/>
	</g>
</g>
</svg>
