<?xml version="1.0" encoding="utf-8"?>
<!-- Generator: Adobe Illustrator 25.0.0, SVG Export Plug-In . SVG Version: 6.00 Build 0)  -->
<svg version="1.1" id="Layer_1" xmlns="http://www.w3.org/2000/svg" xmlns:xlink="http://www.w3.org/1999/xlink" x="0px" y="0px"
	 viewBox="0 0 1200 1200" style="enable-background:new 0 0 1200 1200;" xml:space="preserve">
<style type="text/css">
	.st0{fill:#E7E7E7;}
	.st1{fill:#002E5D;}
	.st2{fill:#FFFFFF;}
	.st3{fill:#E41E34;}
</style>
<rect x="0" y="0" class="st0" width="1200" height="1200"/>
<g>
	<path class="st1" d="M337.62,650.81l35.67,62.88h21.81l0-174.08h23.75c13.69,0,22.62,4.64,27.32,14.19
		c3.99,8.11,3.98,17.97,3.98,23.86v3.91h13.11l0-98.53h-13.11l0,3.91c0,5.89,0.01,15.75-3.98,23.86
		c-4.69,9.55-13.63,14.19-27.32,14.19l-23.75,0l0-127.66c0-19.81,11.18-29.85,33.23-29.85h22.18c15.01,0,29.91,3.08,43.1,8.92
		c18.05,10.85,31.97,30.72,33.11,32.38L696.86,713.7l21.82,0v-77.12L563.48,356.13l-0.98-1.76l-266.83,0v13.11h3.91
		c5.83,0.01,15.74-0.01,23.86,3.98c9.55,4.69,14.19,13.63,14.19,27.32L337.62,650.81z"/>
	<path class="st1" d="M639.52,354.37v15.04h3.42c27.51,0,53.49,37.24,54.96,39.38l173.04,303.18l0.98,1.73l21.81,0v-77.14
		L733.65,354.37L639.52,354.37z"/>
	<path class="st1" d="M824.68,354.37l0,14.56h3.42c46.18,0,62.64,32.11,62.64,62.16v25.12h13.6l0-101.84L824.68,354.37z"/>
	<polygon class="st1" points="368.4,810.18 368.4,803.56 337.62,803.56 337.62,844.92 344.89,844.92 344.89,828.08 365.74,828.08 
		365.74,821.47 344.89,821.47 344.89,810.18 	"/>
	<path class="st1" d="M374.2,824.24v0.12c0,11.64,8.86,21.27,21.57,21.27c12.7,0,21.68-9.75,21.68-21.39v-0.12
		c0-11.64-8.86-21.27-21.57-21.27C383.18,802.86,374.2,812.61,374.2,824.24z M409.83,824.24v0.12c0,8.04-5.73,14.59-13.94,14.59
		c-8.21,0-14.06-6.68-14.06-14.71v-0.12c0-8.03,5.73-14.59,13.94-14.59C403.98,809.53,409.83,816.21,409.83,824.24z"/>
	<path class="st1" d="M425.62,803.56v23.81c0,11.99,6.85,18.2,17.61,18.2c10.81,0,17.78-6.2,17.78-18.55v-23.46h-7.27v23.81
		c0,7.62-3.96,11.52-10.4,11.52c-6.5,0-10.46-4.14-10.46-11.82v-23.52H425.62z"/>
	<path class="st1" d="M484.18,803.27l-18.2,41.66h7.45l4.25-9.98h19.56l4.19,9.98h7.68l-18.2-41.66H484.18z M480.34,828.5
		l7.09-16.54l7.15,16.54H480.34z"/>
	<path class="st1" d="M553.61,824.24v-0.12c0-11.64-8.98-20.56-21.98-20.56h-15.42v41.36h15.42
		C544.63,844.92,553.61,835.88,553.61,824.24z M545.99,824.36c0,8.1-5.67,13.94-14.36,13.94h-8.15l0-28.13h8.15
		c8.69,0,14.36,5.97,14.36,14.06V824.36z"/>
	<polygon class="st1" points="610.82,810.06 610.82,803.56 580.16,803.56 580.16,844.92 611.12,844.92 611.12,838.43 587.42,838.43 
		587.42,827.32 608.16,827.32 608.16,820.82 587.42,820.82 587.42,810.06 	"/>
	<polygon class="st1" points="627.02,803.56 619.75,803.56 619.75,844.92 648.76,844.92 648.76,838.31 627.02,838.31 	"/>
	<rect x="651.96" y="823.3" class="st1" width="17.49" height="7.03"/>
	<polygon class="st1" points="720.09,845.22 734.51,803.56 726.89,803.56 717.02,834.23 706.86,803.45 700.71,803.45 690.55,834.23 
		680.68,803.56 672.82,803.56 687.24,845.22 693.5,845.22 703.67,815.5 713.83,845.22 	"/>
	<path class="st1" d="M751.3,803.27l-18.2,41.66h7.45l4.25-9.99h19.56l4.19,9.99h7.68l-18.2-41.66H751.3z M747.46,828.5l7.09-16.54
		l7.15,16.54H747.46z"/>
	<polygon class="st1" points="775.06,810.3 788.18,810.3 788.18,844.92 795.51,844.92 795.51,810.3 808.62,810.3 808.62,803.56 
		775.06,803.56 	"/>
	<path class="st1" d="M814.89,844.92l4.25-9.98h19.56l4.2,9.98h7.68l-18.2-41.66h-6.74l-18.2,41.66H814.89z M828.9,811.96
		l7.15,16.54h-14.24L828.9,811.96z"/>
	<polygon class="st1" points="886.57,832.16 864.42,803.56 857.68,803.56 857.68,844.92 864.83,844.92 864.83,815.5 887.64,844.92 
		893.72,844.92 893.72,803.56 886.57,803.56 	"/>
</g>
</svg>
