<?xml version="1.0" encoding="utf-8"?>
<!-- Generator: Adobe Illustrator 25.0.0, SVG Export Plug-In . SVG Version: 6.00 Build 0)  -->
<svg version="1.1" id="Layer_1" xmlns="http://www.w3.org/2000/svg" xmlns:xlink="http://www.w3.org/1999/xlink" x="0px" y="0px"
	 viewBox="0 0 1200 1200" style="enable-background:new 0 0 1200 1200;" xml:space="preserve">
<style type="text/css">
	.st0{fill:#E7E7E7;}
	.st1{fill:#002E5D;}
	.st2{fill:#FFFFFF;}
	.st3{fill:#E41E34;}
</style>
<g>
	<g>
		<g>
			<rect x="92.9" y="546.05" class="st0" width="8.94" height="9.01"/>
			<path class="st0" d="M291.88,562.37c-8.53,0-16.33,4.39-23.81,14.05l0.98-29.4h-8.94v43.13h-13h-1.94h-14.14h-1.87h-14.22h-1.87
				h-14.23h-1.86h-14.22h-1.87h-14.22h-1.87h-14.23h-1.86h-13.18h-2.91H122.3c0.33-1.71,0.49-3.33,0.49-5.03v-22.59l-9.18,0v21.53
				c0,5.27-1.3,9.83-3.98,13.64c-3.17,4.31-7.31,6.5-12.44,6.5c-5.2,0-9.34-2.2-12.5-6.5c-2.68-3.81-4.07-8.37-4.07-13.64v-21.53
				h-9.18v22.59c0,7.87,2.6,14.46,7.72,19.81c4.96,5.28,10.97,7.96,18.03,7.96c4.64,0,8.85-1.22,12.84-3.74
				c3.81-2.35,6.82-5.6,9.09-9.75h13.5h2.91h13.18h1.86h14.23h1.87h14.22h1.87h14.22h1.86h14.23h1.87h14.22h1.87h14.14h1.94h65.4
				c0.25-3,0.4-5.77,0.4-8.45C312.92,571.96,305.94,562.37,291.88,562.37z M303.58,590.16l-36.39,0
				c5.53-11.54,14.7-19.66,23.88-19.66c7.88,0,12.51,6.74,12.51,17.06V590.16z"/>
			<path class="st0" d="M439.16,581.63c0,2.93-0.25,4.88-0.65,5.85c-0.89,1.79-2.76,2.68-5.77,2.68h-5.6h-2.11h-13.98h-1.87h-10.36
				h-1.86h-14.22h-1.87H366.8h-2.01h-9.11v-9.42c0-10.64-6.99-18.28-16.9-18.28c-10.32,0-18.2,7.31-18.2,18.03
				c0,10.73,7.96,18.93,17.79,18.93h8.69c-1.3,4.31-4.3,6.25-9.01,6.25v7.15c10.55,0,16.49-4.46,17.71-13.4h11.04l0,0l14.07,0v0
				l17.96,0h10.36h1.87h13.98h2.11h7.47c9.1,0,13.65-4.88,13.65-14.7v-37.69h-9.09V581.63z M346.57,590.16h-8.04
				c-4.88,0-8.69-4.55-8.69-10.16c0-5.44,3.41-9.18,8.77-9.18c4.71,0,7.47,3.41,7.95,8.2V590.16z"/>
			<rect x="456.62" y="546.94" class="st0" width="9.02" height="52.47"/>
			<path class="st0" d="M514.97,563.84c-2.11-0.73-3.74-1.06-4.88-1.13c-1.14-0.08-3.98-0.16-8.45-0.16v8.28
				c2.93,0,5.69,0.16,8.2,0.73c8.21,1.78,12.35,7.95,12.35,18.6h-29.41v9.26h38.59v-9.26C531.29,576.27,525.85,567.49,514.97,563.84
				z"/>
			<rect x="539.75" y="546.94" class="st0" width="9.02" height="52.47"/>
			<path class="st0" d="M581.9,552.79h-7.8c-0.97-0.41-1.46-1.39-1.46-2.85c0-2.03,0.82-3.09,2.36-3.09c1.05,0,1.78,0.73,2.27,2.11
				l4.55-2.11c-1.38-3.17-3.66-4.79-6.82-4.79c-4.31,0-7.64,3.5-7.64,8.05c0,0.81,0.17,1.71,0.4,2.68h-3.89v5.12h18.03V552.79z"/>
			<rect x="753.93" y="545.89" class="st0" width="8.85" height="9.02"/>
			<path class="st0" d="M758.4,561.72c-10.8,0-18.35,7.72-18.35,18.76c0,3.5,0.81,6.74,2.35,9.67h-11.21h-1.7h-14.39h-1.86h-14.22
				h-1.87h-14.22h-1.86h-14.23h-1.86h-14.22h-1.87h-14.22h-1.86h-14.23h-1.86h-14.08h-2.01h-9.11v-9.42
				c0-10.64-6.99-18.28-16.9-18.28c-10.31,0-18.2,7.31-18.2,18.03c0,10.73,7.96,18.93,17.79,18.93h8.69
				c-1.3,4.31-4.3,6.25-9.01,6.25v7.15c10.55,0,16.49-4.46,17.71-13.4h9.03h2.01h14.08h1.86h14.23h1.86h14.22h1.87h14.22h1.86h14.23
				h1.86h14.22h1.87h14.22h1.86h14.39h1.7h27.21c10.88,0,18.2-7.96,18.2-18.68C776.59,570.09,769.21,561.72,758.4,561.72z
				 M582.39,590.16h-8.04c-4.88,0-8.7-4.55-8.7-10.16c0-5.44,3.42-9.18,8.78-9.18c4.71,0,7.47,3.41,7.95,8.2V590.16z M758.56,591.05
				c-5.44,0-9.18-4.79-9.18-10.64c0-6.34,3.49-10.4,8.69-10.4c5.45,0,9.18,4.55,9.18,10.72
				C767.25,586.74,763.84,591.05,758.56,591.05z"/>
		</g>
		<g>
			<path class="st0" d="M87.84,643.01c0,5.78-2.6,9.37-6.79,9.37c-4.14,0-6.82-3.68-6.82-9.37v-8.9h-2.78v9.37
				c0,6.62,4.13,11.62,9.6,11.62c5.46,0,9.57-4.99,9.57-11.62v-9.37h-2.78V643.01z"/>
			<rect x="79.6" y="628.9" class="st0" width="2.81" height="3.27"/>
			<rect x="216.46" y="651.35" class="st0" width="2.84" height="3.28"/>
			<path class="st0" d="M217.28,634.53c-3.7,0-6.45,1.18-8.39,3.59l-0.13,0.16l0.24,0.24c0.97,0.97,1.6,1.61,1.92,1.95l0.21,0.23
				l0.16-0.26c1.27-2.1,3.3-3.17,6.03-3.17c5.03,0,7.91,3.13,7.91,8.58c0,0.29-0.02,0.62-0.05,0.96h-18.86h-1.29h-3.41
				c-1.84,0-2.45-0.11-2.63-0.16c-0.7-0.18-1.4-0.66-2.08-1.43c1.65-1.3,3.07-2.78,4.23-4.4c0.56-0.77,1.24-1.94,2.14-3.67
				l0.09-0.17l-0.15-0.12c-2.64-2.14-5.62-3.23-8.85-3.23c-2.82,0-5.64,0.9-8.4,2.68l-0.11,0.07l0.04,2.9l0.15,0.06
				c2.76,1.07,5.07,2.94,6.85,5.55c-1.05,0.72-1.96,1.23-2.71,1.5c-0.77,0.28-1.77,0.42-2.97,0.42h-4.24h-1.12h-5.43h-0.89h-5.66
				h-0.89h-5.66h-0.89h-5.66h-0.89h-5.66h-0.89h-5.66h-0.89h-5.66h-0.89h-5.66h-0.89h-5.66h-0.89h-5.66h-0.89h-6.55v0.03h-3.28
				v-5.93c0-4.36-2.26-6.85-6.19-6.85c-1.95,0-3.61,0.76-4.94,2.26c-1.29,1.49-1.94,3.36-1.94,5.55c0,2.2,0.62,4.05,1.84,5.51
				c1.22,1.46,2.82,2.2,4.75,2.2h3.3c-0.58,1.83-1.83,2.75-3.73,2.75h-0.53v2.7l0.24-0.02c3.85-0.24,6.17-2.06,6.9-5.43h3.59h1.03
				h5.53h0.89h5.66h0.89h5.66h0.89h5.66h0.89h5.66h0.89h5.66h0.89h5.66h0.89h5.66h0.89h5.66h0.89h5.66h0.89h5.43h1.12h4.3
				c2.9,0,5.39-0.83,7.41-2.48c1.28,1.65,2.95,2.48,4.97,2.48h5.36h1.29h22.11v-3.57C228.44,639.04,224.06,634.53,217.28,634.53z
				 M103.86,646.82l-3.61,0.03c-1.22,0-2.16-0.58-2.88-1.78c-0.59-0.97-0.89-2.12-0.89-3.42c0-1.2,0.34-2.31,1.02-3.31
				c0.75-1.1,1.72-1.65,2.89-1.65c1.15,0,2.01,0.35,2.64,1.08c0.55,0.62,0.84,1.39,0.84,2.3V646.82z M195.06,643.15
				c-1.13-1.52-2.06-2.57-2.92-3.27c-1.01-0.85-2.15-1.55-3.41-2.07c3.41-1.78,6.32-2.06,9.06-1.02c0.23,0.1,1.01,0.46,2.28,1.08
				C198.9,639.89,197.26,641.63,195.06,643.15z"/>
			<rect x="232.41" y="627.71" class="st0" width="2.78" height="21.88"/>
			<path class="st0" d="M267.94,637.01c-2.23,0-4.02,0.74-5.31,2.2c-1.29,1.46-1.95,3.33-1.95,5.55c0,0.73,0.08,1.42,0.23,2.05h-4.1
				h-1.26h-5.1h-1.09h-4.37V634.1h-2.78v12.88c0,3.71-1.36,5.36-4.41,5.36h-0.23v2.7l0.24-0.02c3.89-0.24,6.21-2.06,6.9-5.43h4.64
				h1.09h5.1h1.26h5.24c1.3,1.91,3.26,2.88,5.85,2.88c2.19,0,3.95-0.77,5.24-2.3c1.22-1.43,1.84-3.26,1.84-5.45
				c0-2.26-0.6-4.1-1.78-5.48C271.93,637.76,270.16,637.01,267.94,637.01z M267.9,649.93c-1.36,0-2.37-0.5-3.09-1.52
				c-0.61-0.9-0.92-2.08-0.92-3.51c0-1.55,0.3-2.77,0.92-3.71c0.73-1.11,1.78-1.65,3.22-1.65c1.33,0,2.3,0.5,2.98,1.51
				c0.55,0.87,0.82,2.03,0.82,3.45C271.84,648.15,270.55,649.93,267.9,649.93z"/>
			<path class="st0" d="M284.56,634c-3.86,0-6.55,3.09-6.55,7.52c0,4.39,2.76,7.58,6.55,7.58c1.61,0,2.83-0.45,3.64-1.36
				c-0.25,3.09-1.69,4.6-4.4,4.6h-0.23v2.69l0.24-0.01c4.98-0.27,7.2-2.89,7.2-8.48v-4.93C291.01,637.2,288.3,634,284.56,634z
				 M284.59,646.55c-2.23,0-3.84-2.13-3.84-5.07c0-2.92,1.51-4.97,3.68-4.97c2.25,0,3.88,2.15,3.88,5.1
				C288.3,644.52,286.77,646.55,284.59,646.55z"/>
			<rect x="311.03" y="628.9" class="st0" width="2.81" height="3.27"/>
			<path class="st0" d="M319.28,643.01c0,5.78-2.6,9.37-6.79,9.37c-4.14,0-6.82-3.68-6.82-9.37v-8.9h-2.78v9.37
				c0,6.62,4.13,11.62,9.6,11.62c5.45,0,9.57-4.99,9.57-11.62v-9.37h-2.78V643.01z"/>
			<rect x="418.83" y="651.35" class="st0" width="2.81" height="3.28"/>
			<path class="st0" d="M448.56,642.51c0,3.34-0.69,4.31-3.08,4.31h-3.62c0.34-0.86,0.51-1.96,0.51-3.28v-9.43h-2.78v8.41
				c0,3.68-0.8,4.31-2.58,4.31h-4.05c0.34-0.91,0.51-2.01,0.51-3.28v-9.43h-2.78v8.69c-0.22,2.71-1.3,4.03-3.28,4.03h-2.08h-1.22
				h-2.96c0.34-0.86,0.51-1.96,0.51-3.28v-9.43h-2.78v8.41c0,1.47-0.16,2.51-0.47,3.1c-0.43,0.83-1.28,1.23-2.61,1.23h-1.36v-0.03
				h-6.55h-0.89h-5.66h-0.89h-5.66h-0.89h-5.66h-0.89h-5.66h-0.89h-5.66h-0.89h-5.66h-0.89h-5.66h-0.89h-5.66h-0.89h-5.66h-0.89
				h-6.55v0.03h-3.28v-5.93c0-4.36-2.26-6.85-6.19-6.85c-1.95,0-3.61,0.76-4.94,2.26c-1.29,1.49-1.94,3.36-1.94,5.55
				c0,2.2,0.62,4.05,1.84,5.51c1.22,1.46,2.82,2.2,4.75,2.2h3.3c-0.58,1.83-1.83,2.75-3.73,2.75h-0.53v2.7l0.24-0.02
				c3.85-0.24,6.17-2.06,6.9-5.43h3.59h1.03h5.53h0.89h5.66h0.89h5.66h0.89h5.66h0.89h5.66h0.89h5.66h0.89h5.66h0.89h5.66h0.89h5.66
				h0.89h5.66h0.89h5.56h0.99h9.67h1.22h20.92c3.4,0,5.13-2.04,5.13-6.06v-9.43h-2.81V642.51z M335.3,646.82l-3.61,0.03
				c-1.22,0-2.16-0.58-2.88-1.78c-0.59-0.97-0.89-2.12-0.89-3.42c0-1.2,0.34-2.31,1.02-3.31c0.75-1.1,1.72-1.65,2.89-1.65
				c1.15,0,2.01,0.35,2.64,1.08c0.55,0.62,0.84,1.39,0.84,2.3V646.82z"/>
			<path class="st0" d="M506.36,637.01c-2.23,0-4.02,0.74-5.3,2.2c-1.29,1.46-1.95,3.33-1.95,5.55c0,0.73,0.08,1.42,0.23,2.05h-3.9
				h-1.46h-2.19v-0.8c0-6.98-4.38-11.49-11.16-11.49c-3.7,0-6.45,1.18-8.39,3.59l-0.13,0.16l0.24,0.24c0.96,0.97,1.6,1.61,1.92,1.95
				l0.21,0.23l0.16-0.26c1.27-2.1,3.3-3.17,6.03-3.17c5.03,0,7.91,3.13,7.91,8.58c0,0.29-0.02,0.62-0.05,0.96h-18.92h-1.22h-5.3
				h-0.23c-1.58,0-1.87,0-2.08-0.03c-0.84-0.12-1.4-0.43-1.73-0.92c-0.41-0.64-0.62-1.7-0.62-3.15v-15h-2.84v16.39
				c0,1.84,0.49,3.2,1.49,4.17c0.88,0.88,1.95,1.32,3.18,1.32h1.92h0.92h5.3h1.22h24.37h1.46h5.04c1.3,1.91,3.27,2.88,5.85,2.88
				c2.19,0,3.95-0.77,5.24-2.3c1.22-1.43,1.84-3.26,1.84-5.45c0-2.26-0.6-4.1-1.78-5.48C510.36,637.76,508.58,637.01,506.36,637.01z
				 M506.32,649.93c-1.36,0-2.37-0.5-3.09-1.52c-0.61-0.9-0.92-2.08-0.92-3.51c0-1.55,0.3-2.77,0.92-3.71
				c0.73-1.11,1.78-1.65,3.22-1.65c1.33,0,2.3,0.5,2.98,1.51c0.55,0.87,0.82,2.03,0.82,3.45
				C510.27,648.15,508.98,649.93,506.32,649.93z"/>
			<rect x="526.82" y="638.7" class="st0" width="9.25" height="3.37"/>
			<path class="st0" d="M564.62,643.01c0,5.78-2.6,9.37-6.79,9.37c-4.14,0-6.82-3.68-6.82-9.37v-8.9h-2.78v9.37
				c0,6.62,4.13,11.62,9.6,11.62c5.46,0,9.57-4.99,9.57-11.62v-9.37h-2.78V643.01z"/>
			<rect x="556.37" y="628.9" class="st0" width="2.81" height="3.27"/>
			<path class="st0" d="M670.95,642.51c0,1.48-0.16,2.51-0.47,3.07c-0.43,0.85-1.28,1.26-2.61,1.26h-1.56v-0.03h-6.55h-0.89h-5.66
				h-0.89h-5.66h-0.89h-5.66h-0.89h-5.66h-0.89h-5.66h-0.89h-5.66h-0.89h-5.66h-0.89h-5.66h-0.89h-5.66h-0.89h-5.66h-0.89h-6.55
				v0.03h-3.28v-5.93c0-4.36-2.25-6.85-6.19-6.85c-1.95,0-3.61,0.76-4.94,2.26c-1.29,1.49-1.94,3.36-1.94,5.55
				c0,2.2,0.62,4.05,1.84,5.51c1.22,1.46,2.82,2.2,4.75,2.2h3.3c-0.58,1.83-1.83,2.75-3.73,2.75h-0.53v2.7l0.24-0.02
				c3.85-0.24,6.17-2.06,6.9-5.43h3.59h1.03h5.53h0.89h5.66h0.89h5.66h0.89h5.66h0.89h5.66h0.89h5.66h0.89h5.66h0.89h5.66h0.89h5.66
				h0.89h5.66h0.89h5.66h0.89h5.73h0.83h2.32c3.38,0,5.1-2.04,5.1-6.06v-9.43h-2.78V642.51z M580.64,646.82l-3.61,0.03
				c-1.22,0-2.16-0.58-2.88-1.78c-0.59-0.97-0.89-2.12-0.89-3.42c0-1.2,0.34-2.31,1.02-3.31c0.75-1.1,1.72-1.65,2.89-1.65
				c1.15,0,2.01,0.35,2.64,1.08c0.55,0.62,0.84,1.39,0.84,2.3V646.82z"/>
			<rect x="666.55" y="651.38" class="st0" width="2.81" height="3.27"/>
			<rect x="670.89" y="651.38" class="st0" width="2.81" height="3.27"/>
			<path class="st0" d="M681.25,646.98c0,3.71-1.36,5.36-4.4,5.36h-0.23v2.69l0.24-0.01c4.96-0.27,7.17-2.88,7.17-8.48V634.1h-2.78
				V646.98z"/>
			<rect x="707.9" y="628.9" class="st0" width="2.81" height="3.27"/>
			<rect x="712.24" y="628.9" class="st0" width="2.81" height="3.27"/>
			<rect x="710.02" y="625.23" class="st0" width="2.81" height="3.27"/>
			<rect x="730.71" y="628.9" class="st0" width="2.81" height="3.27"/>
			<rect x="726.37" y="628.9" class="st0" width="2.81" height="3.27"/>
			<path class="st0" d="M767.03,642.51c0,3.34-0.69,4.31-3.08,4.31h-3.62c0.34-0.86,0.51-1.96,0.51-3.28v-9.43h-2.78v8.41
				c0,3.68-0.8,4.31-2.58,4.31h-4.05c0.34-0.91,0.51-2.01,0.51-3.28v-9.43h-2.78v8.69c-0.22,2.71-1.3,4.03-3.28,4.03h-2.12h-1.19
				h-5.33h-0.93h-3.26c0.34-0.86,0.51-1.96,0.51-3.28v-9.43h-2.78v8.41c0,1.47-0.16,2.51-0.47,3.1c-0.43,0.83-1.28,1.23-2.61,1.23
				h-1.26v-0.03h-5.21c0.35-0.89,0.54-2.01,0.54-3.28v-9.43h-2.78v8.41c0,3.34-0.69,4.31-3.08,4.31h-3.62
				c0.34-0.86,0.51-1.96,0.51-3.28v-9.43h-2.78v8.41c0,3.68-0.8,4.31-2.58,4.31h-4.05c0.34-0.91,0.51-2.01,0.51-3.28v-9.43h-2.81
				v8.71c0,2.58-1.15,4.01-3.25,4.01h-2.09h-0.23c-1.58,0-1.87,0-2.08-0.03c-0.84-0.12-1.4-0.43-1.73-0.92
				c-0.41-0.64-0.62-1.7-0.62-3.15v-15h-2.84v16.39c0,1.84,0.49,3.2,1.49,4.17c0.88,0.88,1.95,1.32,3.18,1.32h1.62h1.22h29.6h1.09
				h9.87h0.93h5.33h1.19h20.96c3.4,0,5.13-2.04,5.13-6.06v-9.43h-2.81V642.51z"/>
			<rect x="773.81" y="627.71" class="st0" width="2.78" height="21.88"/>
		</g>
	</g>
	<g>
		<path class="st0" d="M968.87,516.08l-124.64,0l0,6.12h1.82c2.72,0,7.35,0,11.14,1.86c4.46,2.19,6.63,6.37,6.63,12.76v117.73
			l16.66,29.37h10.19v-81.32h11.1c6.39,0,10.57,2.17,12.76,6.63c1.86,3.79,1.86,8.39,1.86,11.14v1.82l6.12,0v-46.03h-6.13v1.82
			c0,2.75,0,7.36-1.86,11.14c-2.19,4.46-6.37,6.63-12.76,6.63h-11.1l0-59.63c0-9.25,5.22-13.94,15.52-13.94h10.36
			c7.01,0,13.97,1.44,20.13,4.17c8.43,5.07,14.93,14.35,15.47,15.12l79.48,142.43h10.19V647.9l-72.5-131L968.87,516.08z"/>
		<path class="st0" d="M1004.85,516.08v7.03h1.6c12.85,0,24.98,17.39,25.67,18.39l80.83,141.62l0.46,0.81h10.19v-36.03
			l-74.77-131.82L1004.85,516.08z"/>
		<path class="st0" d="M1091.34,516.08v6.8h1.6c21.57,0,29.26,15,29.26,29.04v11.73l6.35,0v-47.57H1091.34z"/>
	</g>
</g>
</svg>
