<?xml version="1.0" encoding="utf-8"?>
<!-- Generator: Adobe Illustrator 25.0.0, SVG Export Plug-In . SVG Version: 6.00 Build 0)  -->
<svg version="1.1" id="Layer_1" xmlns="http://www.w3.org/2000/svg" xmlns:xlink="http://www.w3.org/1999/xlink" x="0px" y="0px"
	 viewBox="0 0 1200 1200" style="enable-background:new 0 0 1200 1200;" xml:space="preserve">
<style type="text/css">
	.st0{fill:#E7E7E7;}
	.st1{fill:#002E5D;}
	.st2{fill:#FFFFFF;}
	.st3{fill:#E41E34;}
</style>
<rect y="0" class="st1" width="1200" height="1200"/>
<g>
	<path class="st1" d="M337.62,603.94l35.67,62.88h21.81l0-174.08l23.75,0c13.69,0,22.62,4.64,27.32,14.19
		c3.99,8.11,3.98,17.97,3.98,23.86v3.91h13.11l0-98.53h-13.11l0,3.91c0,5.89,0.01,15.75-3.98,23.86
		c-4.69,9.55-13.63,14.19-27.32,14.19h-23.75l0-127.66c0-19.81,11.18-29.85,33.23-29.85h22.18c15.01,0,29.91,3.08,43.1,8.92
		c18.05,10.85,31.97,30.72,33.11,32.38l170.16,304.92h21.82V589.7L563.48,309.25l-0.98-1.76l-266.83,0v13.11h3.91
		c5.83,0.01,15.74-0.01,23.86,3.98c9.55,4.69,14.19,13.63,14.19,27.32L337.62,603.94z"/>
	<path class="st1" d="M639.52,307.49v15.04h3.42c27.51,0,53.49,37.24,54.96,39.38l173.04,303.18l0.98,1.73h21.81v-77.14
		L733.65,307.49L639.52,307.49z"/>
	<path class="st1" d="M824.68,307.49l0,14.56h3.42c46.18,0,62.64,32.11,62.64,62.16v25.12h13.6l0-101.84L824.68,307.49z"/>
	<polygon class="st1" points="368.4,763.3 368.4,756.69 337.62,756.69 337.62,798.05 344.89,798.05 344.89,781.21 365.74,781.21 
		365.74,774.59 344.89,774.59 344.89,763.3 	"/>
	<path class="st1" d="M374.2,777.37v0.12c0,11.64,8.86,21.27,21.57,21.27c12.7,0,21.68-9.75,21.68-21.39v-0.12
		c0-11.64-8.86-21.27-21.57-21.27C383.18,755.98,374.2,765.73,374.2,777.37z M409.83,777.37v0.12c0,8.04-5.73,14.59-13.94,14.59
		c-8.21,0-14.06-6.68-14.06-14.71v-0.12c0-8.03,5.73-14.59,13.94-14.59C403.98,762.65,409.83,769.33,409.83,777.37z"/>
	<path class="st1" d="M425.62,756.69v23.81c0,11.99,6.85,18.2,17.61,18.2c10.81,0,17.78-6.2,17.78-18.55v-23.46h-7.27v23.81
		c0,7.62-3.96,11.52-10.4,11.52c-6.5,0-10.46-4.14-10.46-11.82v-23.52H425.62z"/>
	<path class="st1" d="M484.18,756.39l-18.2,41.66h7.45l4.25-9.98h19.56l4.19,9.98h7.68l-18.2-41.66H484.18z M480.34,781.62
		l7.09-16.54l7.15,16.54H480.34z"/>
	<path class="st1" d="M553.61,777.37v-0.12c0-11.64-8.98-20.56-21.98-20.56h-15.42v41.36h15.42
		C544.63,798.05,553.61,789.01,553.61,777.37z M545.99,777.48c0,8.1-5.67,13.94-14.36,13.94h-8.15l0-28.13h8.15
		c8.69,0,14.36,5.97,14.36,14.06V777.48z"/>
	<polygon class="st1" points="610.82,763.19 610.82,756.69 580.16,756.69 580.16,798.05 611.12,798.05 611.12,791.55 587.42,791.55 
		587.42,780.44 608.16,780.44 608.16,773.94 587.42,773.94 587.42,763.19 	"/>
	<polygon class="st1" points="627.02,756.69 619.75,756.69 619.75,798.05 648.76,798.05 648.76,791.43 627.02,791.43 	"/>
	<rect x="651.96" y="776.42" class="st1" width="17.49" height="7.03"/>
	<polygon class="st1" points="720.09,798.34 734.51,756.69 726.89,756.69 717.02,787.35 706.86,756.57 700.71,756.57 690.55,787.35 
		680.68,756.69 672.82,756.69 687.24,798.34 693.5,798.34 703.67,768.62 713.83,798.34 	"/>
	<path class="st1" d="M751.3,756.39l-18.2,41.66h7.45l4.25-9.99h19.56l4.19,9.99h7.68l-18.2-41.66H751.3z M747.46,781.62l7.09-16.54
		l7.15,16.54H747.46z"/>
	<polygon class="st1" points="775.06,763.42 788.18,763.42 788.18,798.05 795.51,798.05 795.51,763.42 808.62,763.42 808.62,756.69 
		775.06,756.69 	"/>
	<path class="st1" d="M814.89,798.05l4.25-9.99l19.56,0l4.2,9.98h7.68l-18.2-41.66h-6.74l-18.2,41.66H814.89z M828.9,765.08
		l7.15,16.54h-14.24L828.9,765.08z"/>
	<polygon class="st1" points="886.57,785.28 864.42,756.69 857.68,756.69 857.68,798.05 864.83,798.05 864.83,768.62 887.64,798.05 
		893.72,798.05 893.72,756.69 886.57,756.69 	"/>
	<rect x="354.53" y="839.79" class="st1" width="7.05" height="7.11"/>
	<path class="st1" d="M511.46,852.66c-6.73,0-12.88,3.46-18.77,11.08l0.77-23.19h-7.05v34.02h-10.26h-1.53h-11.15H462l-11.21,0
		h-1.47h-11.22h-1.47h-11.21h-1.48h-11.21h-1.47h-11.22h-1.47h-10.39h-2.3h-8.15c0.26-1.35,0.38-2.63,0.38-3.97V852.8l-7.24,0v16.98
		c0,4.16-1.03,7.75-3.14,10.76c-2.5,3.4-5.77,5.13-9.81,5.13c-4.1,0-7.37-1.73-9.86-5.13c-2.12-3.01-3.21-6.6-3.21-10.76v-16.98
		h-7.24v17.81c0,6.21,2.05,11.4,6.08,15.63c3.91,4.16,8.65,6.28,14.22,6.28c3.66,0,6.98-0.96,10.13-2.95
		c3.01-1.85,5.38-4.42,7.17-7.69h10.65l2.3,0h10.39h1.47h11.22h1.47h11.21h1.48h11.21h1.47h11.22h1.47H462h1.48h11.15h1.53h51.57
		c0.2-2.37,0.32-4.55,0.32-6.66C528.05,860.23,522.54,852.66,511.46,852.66z M520.68,874.58h-28.7c4.36-9.1,11.6-15.5,18.83-15.5
		c6.21,0,9.87,5.32,9.87,13.45L520.68,874.58z"/>
	<path class="st1" d="M627.61,867.85c0,2.31-0.2,3.85-0.51,4.61c-0.7,1.41-2.18,2.12-4.55,2.12h-4.42h-1.67h-11.02h-1.47h-8.17
		h-1.47h-11.21h-1.48h-11.1h-1.59h-7.18v-7.43c0-8.4-5.51-14.41-13.33-14.41c-8.13,0-14.35,5.77-14.35,14.22
		c0,8.46,6.28,14.93,14.03,14.93h6.85c-1.02,3.4-3.39,4.93-7.11,4.93v5.64c8.32,0,13-3.52,13.97-10.57l7.12,0h1.59h11.1h1.48h11.21
		h1.47h8.17h1.47h11.02h1.67h5.89c7.18,0,10.76-3.85,10.76-11.6v-29.72h-7.17V867.85z M554.59,874.58h-6.34
		c-3.85,0-6.85-3.59-6.85-8.01c0-4.29,2.69-7.24,6.92-7.24c3.72,0,5.89,2.69,6.27,6.47L554.59,874.58z"/>
	<rect x="641.38" y="840.5" class="st1" width="7.11" height="41.38"/>
	<path class="st1" d="M687.39,853.82c-1.67-0.57-2.95-0.83-3.85-0.89c-0.9-0.07-3.14-0.13-6.66-0.13v6.53
		c2.31,0,4.48,0.13,6.47,0.58c6.48,1.41,9.74,6.27,9.74,14.67H669.9v7.3h30.43l0-7.3C700.27,863.62,695.98,856.7,687.39,853.82z"/>
	<rect x="706.94" y="840.5" class="st1" width="7.11" height="41.38"/>
	<path class="st1" d="M725.97,849.14h14.22l0-4.03h-6.15c-0.77-0.33-1.15-1.09-1.15-2.25c0-1.6,0.64-2.43,1.86-2.43
		c0.83,0,1.41,0.58,1.79,1.67l3.59-1.67c-1.09-2.5-2.88-3.78-5.38-3.78c-3.4,0-6.03,2.76-6.03,6.35c0,0.64,0.13,1.35,0.32,2.12
		h-3.07V849.14z"/>
	<rect x="875.85" y="839.66" class="st1" width="6.98" height="7.11"/>
	<path class="st1" d="M879.37,852.15c-8.52,0-14.47,6.09-14.47,14.8c0,2.76,0.64,5.32,1.85,7.63h-8.84h-1.34h-11.35h-1.47l-12.69,0
		l0,0l-12.68,0l-11.22,0h-1.47h-11.21H793h-11.21h-1.47h-11.22h-1.47h-11.1h-1.59h-7.18v-7.43c0-8.4-5.51-14.41-13.33-14.41
		c-8.13,0-14.35,5.77-14.35,14.22c0,8.46,6.28,14.93,14.03,14.93l6.85,0c-1.02,3.4-3.39,4.93-7.11,4.93v5.64
		c8.32,0,13-3.52,13.97-10.57h7.12h1.59h11.1h1.47h11.22h1.47H793h1.48h11.21h1.47h11.22h1.47h11.21h1.48h11.21h1.47h11.35h1.34
		h21.46c8.58,0,14.35-6.28,14.35-14.73C893.72,858.75,887.9,852.15,879.37,852.15z M740.57,874.58h-6.34
		c-3.85,0-6.86-3.59-6.86-8.01c0-4.29,2.69-7.24,6.92-7.24c3.72,0,5.89,2.69,6.27,6.47L740.57,874.58z M879.5,875.28
		c-4.29,0-7.24-3.78-7.24-8.39c0-5,2.75-8.2,6.85-8.2c4.3,0,7.24,3.59,7.24,8.45C886.36,871.88,883.67,875.28,879.5,875.28z"/>
</g>
<g>
	<path class="st0" d="M337.62,603.94l35.67,62.88h21.81l0-174.08l23.75,0c13.69,0,22.62,4.64,27.32,14.19
		c3.99,8.11,3.98,17.97,3.98,23.86v3.91h13.11l0-98.53h-13.11l0,3.91c0,5.89,0.01,15.75-3.98,23.86
		c-4.69,9.55-13.63,14.19-27.32,14.19h-23.75l0-127.66c0-19.81,11.18-29.85,33.23-29.85h22.18c15.01,0,29.91,3.08,43.1,8.92
		c18.05,10.85,31.97,30.72,33.11,32.38l170.16,304.92h21.82V589.7L563.48,309.25l-0.98-1.76l-266.83,0v13.11h3.91
		c5.83,0.01,15.74-0.01,23.86,3.98c9.55,4.69,14.19,13.63,14.19,27.32L337.62,603.94z"/>
	<path class="st0" d="M639.52,307.49v15.04h3.42c27.51,0,53.49,37.24,54.96,39.38l173.04,303.18l0.98,1.73h21.81v-77.14
		L733.65,307.49L639.52,307.49z"/>
	<path class="st0" d="M824.68,307.49l0,14.56h3.42c46.18,0,62.64,32.11,62.64,62.16v25.12h13.6l0-101.84L824.68,307.49z"/>
	<polygon class="st0" points="368.4,763.3 368.4,756.69 337.62,756.69 337.62,798.05 344.89,798.05 344.89,781.21 365.74,781.21 
		365.74,774.59 344.89,774.59 344.89,763.3 	"/>
	<path class="st0" d="M374.2,777.37v0.12c0,11.64,8.86,21.27,21.57,21.27c12.7,0,21.68-9.75,21.68-21.39v-0.12
		c0-11.64-8.86-21.27-21.57-21.27C383.18,755.98,374.2,765.73,374.2,777.37z M409.83,777.37v0.12c0,8.04-5.73,14.59-13.94,14.59
		c-8.21,0-14.06-6.68-14.06-14.71v-0.12c0-8.03,5.73-14.59,13.94-14.59C403.98,762.65,409.83,769.33,409.83,777.37z"/>
	<path class="st0" d="M425.62,756.69v23.81c0,11.99,6.85,18.2,17.61,18.2c10.81,0,17.78-6.2,17.78-18.55v-23.46h-7.27v23.81
		c0,7.62-3.96,11.52-10.4,11.52c-6.5,0-10.46-4.14-10.46-11.82v-23.52H425.62z"/>
	<path class="st0" d="M484.18,756.39l-18.2,41.66h7.45l4.25-9.98h19.56l4.19,9.98h7.68l-18.2-41.66H484.18z M480.34,781.62
		l7.09-16.54l7.15,16.54H480.34z"/>
	<path class="st0" d="M553.61,777.37v-0.12c0-11.64-8.98-20.56-21.98-20.56h-15.42v41.36h15.42
		C544.63,798.05,553.61,789.01,553.61,777.37z M545.99,777.48c0,8.1-5.67,13.94-14.36,13.94h-8.15l0-28.13h8.15
		c8.69,0,14.36,5.97,14.36,14.06V777.48z"/>
	<polygon class="st0" points="610.82,763.19 610.82,756.69 580.16,756.69 580.16,798.05 611.12,798.05 611.12,791.55 587.42,791.55 
		587.42,780.44 608.16,780.44 608.16,773.94 587.42,773.94 587.42,763.19 	"/>
	<polygon class="st0" points="627.02,756.69 619.75,756.69 619.75,798.05 648.76,798.05 648.76,791.43 627.02,791.43 	"/>
	<rect x="651.96" y="776.42" class="st0" width="17.49" height="7.03"/>
	<polygon class="st0" points="720.09,798.34 734.51,756.69 726.89,756.69 717.02,787.35 706.86,756.57 700.71,756.57 690.55,787.35 
		680.68,756.69 672.82,756.69 687.24,798.34 693.5,798.34 703.67,768.62 713.83,798.34 	"/>
	<path class="st0" d="M751.3,756.39l-18.2,41.66h7.45l4.25-9.99h19.56l4.19,9.99h7.68l-18.2-41.66H751.3z M747.46,781.62l7.09-16.54
		l7.15,16.54H747.46z"/>
	<polygon class="st0" points="775.06,763.42 788.18,763.42 788.18,798.05 795.51,798.05 795.51,763.42 808.62,763.42 808.62,756.69 
		775.06,756.69 	"/>
	<path class="st0" d="M814.89,798.05l4.25-9.99l19.56,0l4.2,9.98h7.68l-18.2-41.66h-6.74l-18.2,41.66H814.89z M828.9,765.08
		l7.15,16.54h-14.24L828.9,765.08z"/>
	<polygon class="st0" points="886.57,785.28 864.42,756.69 857.68,756.69 857.68,798.05 864.83,798.05 864.83,768.62 887.64,798.05 
		893.72,798.05 893.72,756.69 886.57,756.69 	"/>
	<rect x="354.53" y="839.79" class="st0" width="7.05" height="7.11"/>
	<path class="st0" d="M511.46,852.66c-6.73,0-12.88,3.46-18.77,11.08l0.77-23.19h-7.05v34.02h-10.26h-1.53h-11.15H462l-11.21,0
		h-1.47h-11.22h-1.47h-11.21h-1.48h-11.21h-1.47h-11.22h-1.47h-10.39h-2.3h-8.15c0.26-1.35,0.38-2.63,0.38-3.97V852.8l-7.24,0v16.98
		c0,4.16-1.03,7.75-3.14,10.76c-2.5,3.4-5.77,5.13-9.81,5.13c-4.1,0-7.37-1.73-9.86-5.13c-2.12-3.01-3.21-6.6-3.21-10.76v-16.98
		h-7.24v17.81c0,6.21,2.05,11.4,6.08,15.63c3.91,4.16,8.65,6.28,14.22,6.28c3.66,0,6.98-0.96,10.13-2.95
		c3.01-1.85,5.38-4.42,7.17-7.69h10.65l2.3,0h10.39h1.47h11.22h1.47h11.21h1.48h11.21h1.47h11.22h1.47H462h1.48h11.15h1.53h51.57
		c0.2-2.37,0.32-4.55,0.32-6.66C528.05,860.23,522.54,852.66,511.46,852.66z M520.68,874.58h-28.7c4.36-9.1,11.6-15.5,18.83-15.5
		c6.21,0,9.87,5.32,9.87,13.45L520.68,874.58z"/>
	<path class="st0" d="M627.61,867.85c0,2.31-0.2,3.85-0.51,4.61c-0.7,1.41-2.18,2.12-4.55,2.12h-4.42h-1.67h-11.02h-1.47h-8.17
		h-1.47h-11.21h-1.48h-11.1h-1.59h-7.18v-7.43c0-8.4-5.51-14.41-13.33-14.41c-8.13,0-14.35,5.77-14.35,14.22
		c0,8.46,6.28,14.93,14.03,14.93h6.85c-1.02,3.4-3.39,4.93-7.11,4.93v5.64c8.32,0,13-3.52,13.97-10.57l7.12,0h1.59h11.1h1.48h11.21
		h1.47h8.17h1.47h11.02h1.67h5.89c7.18,0,10.76-3.85,10.76-11.6v-29.72h-7.17V867.85z M554.59,874.58h-6.34
		c-3.85,0-6.85-3.59-6.85-8.01c0-4.29,2.69-7.24,6.92-7.24c3.72,0,5.89,2.69,6.27,6.47L554.59,874.58z"/>
	<rect x="641.38" y="840.5" class="st0" width="7.11" height="41.38"/>
	<path class="st0" d="M687.39,853.82c-1.67-0.57-2.95-0.83-3.85-0.89c-0.9-0.07-3.14-0.13-6.66-0.13v6.53
		c2.31,0,4.48,0.13,6.47,0.58c6.48,1.41,9.74,6.27,9.74,14.67H669.9v7.3h30.43l0-7.3C700.27,863.62,695.98,856.7,687.39,853.82z"/>
	<rect x="706.94" y="840.5" class="st0" width="7.11" height="41.38"/>
	<path class="st0" d="M725.97,849.14h14.22l0-4.03h-6.15c-0.77-0.33-1.15-1.09-1.15-2.25c0-1.6,0.64-2.43,1.86-2.43
		c0.83,0,1.41,0.58,1.79,1.67l3.59-1.67c-1.09-2.5-2.88-3.78-5.38-3.78c-3.4,0-6.03,2.76-6.03,6.35c0,0.64,0.13,1.35,0.32,2.12
		h-3.07V849.14z"/>
	<rect x="875.85" y="839.66" class="st0" width="6.98" height="7.11"/>
	<path class="st0" d="M879.37,852.15c-8.52,0-14.47,6.09-14.47,14.8c0,2.76,0.64,5.32,1.85,7.63h-8.84h-1.34h-11.35h-1.47l-12.69,0
		l0,0l-12.68,0l-11.22,0h-1.47h-11.21H793h-11.21h-1.47h-11.22h-1.47h-11.1h-1.59h-7.18v-7.43c0-8.4-5.51-14.41-13.33-14.41
		c-8.13,0-14.35,5.77-14.35,14.22c0,8.46,6.28,14.93,14.03,14.93l6.85,0c-1.02,3.4-3.39,4.93-7.11,4.93v5.64
		c8.32,0,13-3.52,13.97-10.57h7.12h1.59h11.1h1.47h11.22h1.47H793h1.48h11.21h1.47h11.22h1.47h11.21h1.48h11.21h1.47h11.35h1.34
		h21.46c8.58,0,14.35-6.28,14.35-14.73C893.72,858.75,887.9,852.15,879.37,852.15z M740.57,874.58h-6.34
		c-3.85,0-6.86-3.59-6.86-8.01c0-4.29,2.69-7.24,6.92-7.24c3.72,0,5.89,2.69,6.27,6.47L740.57,874.58z M879.5,875.28
		c-4.29,0-7.24-3.78-7.24-8.39c0-5,2.75-8.2,6.85-8.2c4.3,0,7.24,3.59,7.24,8.45C886.36,871.88,883.67,875.28,879.5,875.28z"/>
</g>
</svg>
