<?xml version="1.0" encoding="utf-8"?>
<!-- Generator: Adobe Illustrator 25.0.0, SVG Export Plug-In . SVG Version: 6.00 Build 0)  -->
<svg version="1.1" id="Layer_1" xmlns="http://www.w3.org/2000/svg" xmlns:xlink="http://www.w3.org/1999/xlink" x="0px" y="0px"
	 viewBox="0 0 1200 1200" style="enable-background:new 0 0 1200 1200;" xml:space="preserve">
<style type="text/css">
	.st0{fill:#E7E7E7;}
	.st1{fill:#002E5D;}
	.st2{fill:#FFFFFF;}
	.st3{fill:#E41E34;}
</style>
<rect y="0" class="st1" width="1200" height="1200"/>
<g>
	
		<rect x="597.42" y="407.49" transform="matrix(-1 -1.224647e-16 1.224647e-16 -1 1197.8684 1200)" class="st2" width="3.02" height="385.01"/>
	<g>
		<g>
			<path class="st2" d="M698.83,560.59c0-21.24,0-25.15-0.28-29.62c-0.28-4.75-1.4-6.99-6.01-7.96c-1.12-0.28-3.49-0.42-5.45-0.42
				c-1.54,0-2.38-0.28-2.38-1.26c0-0.98,0.98-1.26,3.07-1.26c7.41,0,16.21,0.42,19,0.42c6.85,0,12.3-0.42,17.05-0.42
				c25.29,0,29.76,13.55,29.76,20.96c0,11.46-6.57,18.3-14.25,24.45c11.46,3.91,25.43,13.83,25.43,30.18
				c0,14.95-11.6,30.46-37.3,30.46c-1.68,0-5.73-0.28-9.78-0.42c-4.19-0.28-8.38-0.42-10.48-0.42c-1.54,0-4.61,0-7.96,0.14
				c-3.21,0-6.85,0.28-9.64,0.28c-1.82,0-2.79-0.42-2.79-1.4c0-0.7,0.56-1.12,2.24-1.12c2.1,0,3.77-0.28,5.03-0.56
				c2.79-0.56,3.49-3.63,4.05-7.68c0.7-5.87,0.7-16.91,0.7-29.76L698.83,560.59z M715.6,562.96c0,1.12,0.42,1.4,0.98,1.54
				c1.26,0.28,3.35,0.42,6.57,0.42c4.61,0,7.68-0.56,10.06-2.65c3.63-2.93,5.73-7.96,5.73-14.81c0-9.36-5.45-21.66-17.46-21.66
				c-1.96,0-3.21,0-4.61,0.28c-0.98,0.28-1.26,0.84-1.26,2.38V562.96z M734.04,574.14c-2.94-2.1-6.15-3.07-11.6-3.35
				c-2.52-0.14-3.91-0.14-6.01-0.14c-0.56,0-0.84,0.28-0.84,0.98v33.11c0,9.22,0.42,11.6,4.89,13.41c3.77,1.54,6.99,1.68,10.2,1.68
				c6.29,0,16.91-3.35,16.91-17.88C747.59,593.28,744.66,581.54,734.04,574.14z"/>
			<path class="st2" d="M855.59,566.73h0.7c4.75-5.17,25.15-25.99,29.2-30.74c3.91-4.61,6.99-8.1,6.99-10.48
				c0-1.54-0.56-2.52-1.96-2.79c-1.26-0.28-1.82-0.56-1.82-1.4c0-0.98,0.7-1.26,2.24-1.26c2.94,0,10.62,0.42,14.39,0.42
				c4.33,0,12.02-0.42,16.35-0.42c1.4,0,2.38,0.28,2.38,1.26s-0.7,1.26-2.1,1.26c-1.96,0-5.45,0.56-8.1,1.54
				c-4.33,1.68-9.08,4.61-15.09,10.48c-4.33,4.19-25.43,25.15-30.18,30.18c5.03,6.57,32.41,36.05,37.86,41.22
				c6.15,5.87,12.44,12.16,19.98,15.09c4.19,1.68,6.99,2.1,8.66,2.1c0.98,0,1.82,0.28,1.82,1.12c0,0.98-0.7,1.4-3.35,1.4H921.4
				c-4.19,0-6.71,0-9.64-0.28c-7.55-0.7-11.32-3.77-17.33-9.08c-6.15-5.45-33.67-37.72-36.61-41.78l-1.54-2.1h-0.7v12.71
				c0,12.85,0,23.89,0.42,29.9c0.28,3.91,1.54,6.99,5.03,7.54c1.96,0.28,5.03,0.56,6.85,0.56c1.12,0,1.82,0.42,1.82,1.12
				c0,0.98-1.12,1.4-2.65,1.4c-7.83,0-16.63-0.42-20.12-0.42c-3.21,0-12.02,0.42-17.6,0.42c-1.82,0-2.79-0.42-2.79-1.4
				c0-0.7,0.56-1.12,2.24-1.12c2.1,0,3.77-0.28,5.03-0.56c2.79-0.56,3.49-3.63,4.05-7.68c0.7-5.87,0.7-16.91,0.7-29.76v-24.59
				c0-21.24,0-25.15-0.28-29.62c-0.28-4.75-1.4-6.99-6.01-7.96c-1.12-0.28-3.49-0.42-5.45-0.42c-1.54,0-2.38-0.28-2.38-1.26
				c0-0.98,0.98-1.26,3.07-1.26c7.41,0,16.21,0.42,19.56,0.42c3.35,0,12.16-0.42,16.91-0.42c1.96,0,2.93,0.28,2.93,1.26
				c0,0.98-0.84,1.26-1.96,1.26c-1.4,0-2.24,0.14-3.91,0.42c-3.77,0.7-4.89,3.07-5.17,7.96c-0.28,4.47-0.28,8.38-0.28,29.62V566.73z
				"/>
			<path class="st2" d="M989.57,560.59c0-21.24,0-25.15-0.28-29.62c-0.28-4.75-1.4-6.99-6.01-7.96c-1.12-0.28-3.49-0.42-5.45-0.42
				c-1.54,0-2.38-0.28-2.38-1.26s0.98-1.26,3.07-1.26c7.41,0,16.21,0.42,19.14,0.42c4.75,0,15.37-0.42,19.7-0.42
				c8.8,0,18.16,0.84,25.71,6.01c3.91,2.65,9.5,9.78,9.5,19.14c0,10.34-4.33,19.84-18.44,31.3c12.44,15.65,22.08,28.08,30.32,36.75
				c7.82,8.1,13.55,9.08,15.65,9.5c1.54,0.28,2.8,0.42,3.91,0.42c1.12,0,1.68,0.42,1.68,1.12c0,1.12-0.98,1.4-2.66,1.4h-13.27
				c-7.82,0-11.32-0.7-14.95-2.65c-6.01-3.21-11.32-9.78-19.14-20.54c-5.59-7.68-12.02-17.19-13.83-19.28
				c-0.7-0.84-1.54-0.98-2.52-0.98l-12.16-0.28c-0.7,0-1.12,0.28-1.12,1.12v1.96c0,12.99,0,24.03,0.7,29.9
				c0.42,4.05,1.26,7.13,5.45,7.68c2.1,0.28,5.17,0.56,6.85,0.56c1.12,0,1.67,0.42,1.67,1.12c0,0.98-0.98,1.4-2.79,1.4
				c-8.1,0-18.44-0.42-20.54-0.42c-2.66,0-11.46,0.42-17.05,0.42c-1.82,0-2.79-0.42-2.79-1.4c0-0.7,0.56-1.12,2.24-1.12
				c2.1,0,3.77-0.28,5.03-0.56c2.79-0.56,3.49-3.63,4.05-7.68c0.7-5.87,0.7-16.91,0.7-29.76V560.59z M1006.06,571.62
				c0,1.54,0.28,2.1,1.26,2.51c2.93,0.98,7.13,1.4,10.62,1.4c5.59,0,7.41-0.56,9.92-2.38c4.19-3.07,8.24-9.5,8.24-20.96
				c0-19.84-13.13-25.57-21.38-25.57c-3.49,0-6.01,0.14-7.41,0.56c-0.98,0.28-1.26,0.84-1.26,1.96V571.62z"/>
		</g>
		<g>
			<path class="st2" d="M698.62,659.94h3.45v19.66h-3.45V659.94z"/>
			<path class="st2" d="M718.5,659.94h3.2l10.53,13.59v-13.59h3.4v19.66h-2.89l-10.84-13.99v13.99h-3.4V659.94z"/>
			<path class="st2" d="M756.68,663.14h-6.23v-3.2h15.95v3.2h-6.23v16.46h-3.48V663.14z"/>
			<path class="st2" d="M781.21,659.94h14.58v3.09h-11.12v5.11h9.86v3.09l-9.86,0v5.28h11.26v3.09l-14.72,0V659.94z"/>
			<path class="st2" d="M811.19,659.94h8.76c2.47,0,4.41,0.73,5.67,1.97c1.04,1.07,1.63,2.53,1.63,4.24v0.06
				c0,3.23-1.94,5.17-4.69,5.95l5.31,7.44h-4.07l-4.83-6.85h-4.32v6.85h-3.45V659.94z M819.7,669.68c2.47,0,4.04-1.29,4.04-3.29
				v-0.06c0-2.11-1.52-3.26-4.07-3.26h-5.03v6.6H819.7z"/>
			<path class="st2" d="M842.66,659.94h3.2l10.53,13.59v-13.59h3.4v19.66h-2.89l-10.84-13.99l0,13.99h-3.4L842.66,659.94z"/>
			<path class="st2" d="M882.98,659.8h3.2l8.65,19.8h-3.65l-1.99-4.75h-9.3l-2.02,4.75h-3.54L882.98,659.8z M887.92,671.79
				l-3.4-7.86l-3.37,7.86H887.92z"/>
			<path class="st2" d="M911.67,663.14h-6.23v-3.2h15.95v3.2h-6.23v16.46h-3.48V663.14z"/>
			<path class="st2" d="M936.4,659.94h3.45v19.66h-3.45V659.94z"/>
			<path class="st2" d="M955.4,669.82v-0.06c0-5.53,4.27-10.17,10.31-10.17c6.04,0,10.25,4.58,10.25,10.11v0.06
				c0,5.53-4.27,10.17-10.31,10.17C959.62,679.93,955.4,675.35,955.4,669.82z M972.34,669.82v-0.06c0-3.82-2.78-6.99-6.68-6.99
				c-3.9,0-6.63,3.12-6.63,6.94v0.06c0,3.82,2.78,6.99,6.68,6.99C969.61,676.76,972.34,673.64,972.34,669.82z"/>
			<path class="st2" d="M991.31,659.94h3.2l10.53,13.59v-13.59h3.4v19.66h-2.89l-10.84-13.99v13.99h-3.4V659.94z"/>
			<path class="st2" d="M1031.62,659.8h3.2l8.65,19.8h-3.65l-1.99-4.75h-9.3l-2.02,4.75h-3.54L1031.62,659.8z M1036.57,671.79
				l-3.4-7.86l-3.37,7.86H1036.57z"/>
			<path class="st2" d="M1058.01,659.94h3.45v16.51h10.34v3.15h-13.79V659.94z"/>
		</g>
	</g>
	<g>
		<path class="st2" d="M141.79,602.58l23.37,41.21h14.29l0-114.07h15.57c8.97,0,14.82,3.04,17.9,9.3
			c2.61,5.31,2.61,11.77,2.61,15.63v2.56h8.59l0-64.57h-8.59v2.56c0,3.86,0.01,10.32-2.61,15.63c-3.08,6.26-8.93,9.3-17.9,9.3
			h-15.57l0-83.66c0-12.98,7.32-19.56,21.77-19.56h14.53c9.84,0,19.6,2.02,28.24,5.85c11.83,7.11,20.95,20.13,21.7,21.22
			l111.5,199.81h14.3l0-50.53L289.79,409.48l-0.64-1.16l-174.85,0v8.59h2.56c3.82,0.01,10.32-0.01,15.63,2.61
			c6.26,3.08,9.3,8.93,9.3,17.9L141.79,602.58z"/>
		<path class="st2" d="M339.62,408.32v9.86h2.24c18.03,0,35.05,24.4,36.01,25.8l113.39,198.67l0.64,1.13h14.29l0-50.55L401.3,408.32
			H339.62z"/>
		<path class="st2" d="M460.95,408.32v9.54h2.24c30.26,0,41.05,21.04,41.05,40.73v16.46h8.91v-66.73L460.95,408.32z"/>
		<polygon class="st2" points="161.96,707.01 161.96,702.67 141.79,702.67 141.79,729.78 146.55,729.78 146.55,718.74 
			160.22,718.74 160.22,714.4 146.55,714.4 146.55,707.01 		"/>
		<path class="st2" d="M165.76,716.22v0.08c0,7.63,5.81,13.94,14.13,13.94c8.32,0,14.21-6.39,14.21-14.02v-0.08
			c0-7.63-5.81-13.94-14.13-13.94C171.65,702.21,165.76,708.6,165.76,716.22z M189.11,716.22v0.08c0,5.27-3.76,9.56-9.14,9.56
			c-5.38,0-9.21-4.38-9.21-9.64v-0.08c0-5.26,3.76-9.56,9.14-9.56C185.28,706.58,189.11,710.96,189.11,716.22z"/>
		<path class="st2" d="M199.45,702.67v15.6c0,7.86,4.49,11.92,11.54,11.92c7.09,0,11.65-4.07,11.65-12.16v-15.37h-4.76v15.6
			c0,4.99-2.59,7.55-6.81,7.55c-4.26,0-6.85-2.71-6.85-7.74v-15.41H199.45z"/>
		<path class="st2" d="M237.83,702.48l-11.93,27.3h4.88l2.79-6.54h12.82l2.75,6.54h5.03l-11.93-27.3H237.83z M235.31,719.01
			l4.65-10.84l4.69,10.84H235.31z"/>
		<path class="st2" d="M283.33,716.22v-0.08c0-7.63-5.89-13.47-14.4-13.47h-10.11v27.1h10.11
			C277.44,729.78,283.33,723.85,283.33,716.22z M278.33,716.3c0,5.31-3.72,9.14-9.41,9.14h-5.34v-18.43h5.34
			c5.69,0,9.41,3.91,9.41,9.22V716.3z"/>
		<polygon class="st2" points="320.82,706.93 320.82,702.67 300.72,702.67 300.72,729.78 321.01,729.78 321.01,725.52 
			305.48,725.52 305.48,718.24 319.07,718.24 319.07,713.98 305.48,713.98 305.48,706.93 		"/>
		<polygon class="st2" points="331.43,702.67 326.67,702.67 326.67,729.78 345.68,729.78 345.68,725.44 331.43,725.44 		"/>
		<rect x="347.77" y="715.61" class="st2" width="11.46" height="4.61"/>
		<polygon class="st2" points="392.42,729.97 401.86,702.67 396.87,702.67 390.4,722.77 383.74,702.6 379.72,702.6 373.06,722.77 
			366.59,702.67 361.44,702.67 370.89,729.97 374.99,729.97 381.65,710.49 388.31,729.97 		"/>
		<path class="st2" d="M412.87,702.48l-11.93,27.3h4.88l2.79-6.54h12.82l2.75,6.54h5.03l-11.92-27.3H412.87z M410.35,719.01
			l4.65-10.84l4.69,10.84H410.35z"/>
		<polygon class="st2" points="428.44,707.09 437.03,707.09 437.03,729.78 441.84,729.78 441.84,707.09 450.43,707.09 
			450.43,702.67 428.44,702.67 		"/>
		<path class="st2" d="M454.54,729.78l2.79-6.54h12.82l2.75,6.54h5.03L466,702.48h-4.41l-11.92,27.3H454.54z M463.72,708.17
			l4.68,10.84h-9.33L463.72,708.17z"/>
		<polygon class="st2" points="501.51,721.41 486.99,702.67 482.58,702.67 482.58,729.78 487.26,729.78 487.26,710.49 
			502.21,729.78 506.19,729.78 506.19,702.67 501.51,702.67 		"/>
		<rect x="152.87" y="757.13" class="st2" width="4.62" height="4.66"/>
		<path class="st2" d="M255.71,765.57c-4.41,0-8.44,2.27-12.3,7.26l0.51-15.19h-4.62l0,22.29h-6.72h-1h-7.31h-0.97h-7.35h-0.96
			h-7.35h-0.96h-7.35h-0.97H191h-0.96h-7.35h-0.96h-6.81h-1.51h-5.34c0.17-0.88,0.25-1.72,0.25-2.6v-11.67h-4.74v11.13
			c0,2.73-0.67,5.08-2.06,7.05c-1.64,2.23-3.78,3.36-6.43,3.36c-2.69,0-4.83-1.13-6.46-3.36c-1.39-1.97-2.1-4.32-2.1-7.05v-11.13
			h-4.74v11.67c0,4.07,1.34,7.47,3.99,10.24c2.56,2.73,5.67,4.12,9.32,4.12c2.4,0,4.58-0.63,6.64-1.93c1.97-1.22,3.53-2.9,4.7-5.04
			h6.98h1.51h6.81h0.96h7.35H191h7.35h0.97h7.35h0.96h7.35h0.96h7.35h0.97h7.31h1l33.8,0c0.13-1.55,0.21-2.98,0.21-4.37
			C266.58,770.52,262.97,765.57,255.71,765.57z M261.75,779.92l-18.81,0c2.86-5.96,7.6-10.16,12.34-10.16
			c4.07,0,6.46,3.48,6.46,8.81V779.92z"/>
		<path class="st2" d="M331.81,775.51c0,1.51-0.13,2.52-0.34,3.02c-0.46,0.93-1.43,1.39-2.98,1.39h-2.9h-1.09h-7.22h-0.96h-5.35
			h-0.96h-7.35h-0.97h-7.27h-1.04h-4.71v-4.87c0-5.5-3.61-9.45-8.73-9.45c-5.33,0-9.4,3.78-9.4,9.32c0,5.54,4.12,9.78,9.19,9.78
			h4.49c-0.67,2.23-2.22,3.23-4.66,3.23v3.69c5.45,0,8.52-2.31,9.15-6.93h4.67h1.04h7.27h0.97h7.35h0.96h5.35h0.96h7.22h1.09h3.86
			c4.7,0,7.05-2.52,7.05-7.6v-19.48h-4.7V775.51z M283.97,779.92h-4.15c-2.52,0-4.49-2.35-4.49-5.25c0-2.81,1.76-4.74,4.53-4.74
			c2.44,0,3.86,1.76,4.11,4.24V779.92z"/>
		<rect x="340.84" y="757.59" class="st2" width="4.66" height="27.12"/>
		<path class="st2" d="M370.99,766.32c-1.09-0.38-1.93-0.55-2.52-0.58c-0.59-0.04-2.06-0.09-4.37-0.09v4.28
			c1.51,0,2.94,0.09,4.24,0.38c4.24,0.92,6.38,4.11,6.38,9.61h-15.2v4.78h19.94l0-4.78C379.43,772.75,376.62,768.21,370.99,766.32z"
			/>
		<rect x="383.8" y="757.59" class="st2" width="4.66" height="27.12"/>
		<path class="st2" d="M396.27,763.26h9.32v-2.64h-4.03c-0.5-0.21-0.75-0.72-0.75-1.47c0-1.05,0.42-1.59,1.22-1.59
			c0.54,0,0.92,0.38,1.17,1.09l2.35-1.09c-0.71-1.64-1.89-2.48-3.52-2.48c-2.23,0-3.95,1.81-3.95,4.16c0,0.42,0.09,0.88,0.21,1.39
			h-2.01V763.26z"/>
		<rect x="494.48" y="757.05" class="st2" width="4.58" height="4.66"/>
		<path class="st2" d="M496.79,765.23c-5.58,0-9.48,3.99-9.48,9.7c0,1.81,0.42,3.48,1.22,5h-5.8h-0.88h-7.44h-0.96h-8.32l0,0
			l-8.31,0h-7.35h-0.96h-7.35h-0.97h-7.35h-0.96h-7.35h-0.96l-7.28,0h-1.04h-4.71v-4.87c0-5.5-3.61-9.45-8.73-9.45
			c-5.33,0-9.4,3.78-9.4,9.32c0,5.54,4.12,9.78,9.19,9.78h4.49c-0.67,2.23-2.22,3.23-4.66,3.23v3.69c5.45,0,8.52-2.31,9.15-6.93
			h4.67h1.04h7.28h0.96h7.35h0.96h7.35h0.97l7.35,0h0.96h7.35h0.96h7.35h0.97h7.35h0.96h7.44h0.88h14.06c5.62,0,9.4-4.12,9.4-9.65
			C506.19,769.55,502.38,765.23,496.79,765.23z M405.84,779.92h-4.15c-2.52,0-4.49-2.35-4.49-5.25c0-2.81,1.77-4.74,4.54-4.74
			c2.44,0,3.86,1.76,4.11,4.24V779.92z M496.88,780.38c-2.81,0-4.74-2.48-4.74-5.5c0-3.27,1.8-5.37,4.49-5.37
			c2.81,0,4.74,2.35,4.74,5.54C501.37,778.16,499.61,780.38,496.88,780.38z"/>
	</g>
</g>
</svg>
