<?xml version="1.0" encoding="utf-8"?>
<!-- Generator: Adobe Illustrator 25.0.0, SVG Export Plug-In . SVG Version: 6.00 Build 0)  -->
<svg version="1.1" id="Layer_1" xmlns="http://www.w3.org/2000/svg" xmlns:xlink="http://www.w3.org/1999/xlink" x="0px" y="0px"
	 viewBox="0 0 1200 1200" style="enable-background:new 0 0 1200 1200;" xml:space="preserve">
<style type="text/css">
	.st0{fill:#E7E7E7;}
	.st1{fill:#002E5D;}
	.st2{fill:#FFFFFF;}
	.st3{fill:#E41E34;}
</style>
<g>
	<g>
		<path class="st0" d="M196.09,516.08H71.45v6.13h1.82c2.72,0,7.35,0,11.14,1.86c4.46,2.19,6.63,6.37,6.63,12.76v117.73l16.66,29.37
			h10.19v-81.32h11.1c6.39,0,10.57,2.17,12.76,6.63c1.86,3.79,1.86,8.39,1.86,11.14v1.82h6.13v-46.03h-6.13v1.82
			c0,2.75,0,7.36-1.86,11.14c-2.19,4.46-6.37,6.63-12.76,6.63h-11.1v-59.63c0-9.25,5.22-13.94,15.52-13.94h10.36
			c7.01,0,13.97,1.44,20.13,4.17c8.43,5.07,14.93,14.35,15.47,15.12l79.48,142.43h10.19V647.9l-72.5-131L196.09,516.08z"/>
		<path class="st0" d="M232.07,516.08v7.03h1.6c12.85,0,24.98,17.39,25.67,18.39l80.83,141.62l0.46,0.81h10.19v-36.03l-74.77-131.82
			H232.07z"/>
		<path class="st0" d="M318.56,516.08v6.8h1.6c21.57,0,29.26,15,29.26,29.04v11.73h6.35v-47.57H318.56z"/>
	</g>
	<g>
		<g>
			<path class="st0" d="M440.32,643.83c-1.76,1.68-3.49,2.8-6.23,2.8c-4.21,0-7.39-3.41-7.39-7.94c0-4.49,3.18-7.88,7.39-7.88
				c2.29,0,4.1,0.79,6.06,2.65l0.34,0.32l2.19-2.35l-0.33-0.31c-1.84-1.73-4.11-3.34-8.22-3.34c-6.11,0-10.71,4.72-10.71,10.97
				c0,6.22,4.57,10.91,10.62,10.91c4.22,0,6.63-1.87,8.44-3.7l0.32-0.33l-2.15-2.11L440.32,643.83z"/>
			<path class="st0" d="M455.9,627.77c-6.07,0-10.83,4.82-10.83,10.97c0,6.22,4.63,10.91,10.77,10.91c6.07,0,10.83-4.82,10.83-10.97
				C466.67,632.47,462.04,627.77,455.9,627.77z M455.9,646.63c-4.3,0-7.54-3.41-7.54-7.94c0-4.49,3.22-7.88,7.48-7.88
				c4.3,0,7.53,3.41,7.53,7.94C463.38,643.24,460.16,646.63,455.9,646.63z"/>
			<polygon class="st0" points="486.37,643.5 474.28,628.12 471.45,628.12 471.45,649.31 474.6,649.31 474.6,633.55 487.01,649.31 
				489.52,649.31 489.52,628.12 486.37,628.12 			"/>
			<path class="st0" d="M503.03,637.17L503.03,637.17c-4.34-0.93-5.14-1.92-5.14-3.52c0-1.67,1.58-2.84,3.86-2.84
				c2.04,0,3.81,0.67,5.56,2.1l0.37,0.3l1.89-2.5l-0.35-0.28c-2.26-1.82-4.48-2.59-7.41-2.59c-4.13,0-7.12,2.53-7.12,6.02
				c0,3.96,2.86,5.39,7.17,6.33c4.15,0.88,4.91,1.84,4.91,3.43c0,1.81-1.63,3.02-4.06,3.02c-2.56,0-4.49-0.8-6.64-2.75l-0.35-0.32
				l-2.01,2.38l0.33,0.3c2.57,2.29,5.3,3.36,8.59,3.36c4.35,0,7.38-2.56,7.38-6.22C509.99,640.09,507.91,638.23,503.03,637.17z"/>
			<path class="st0" d="M528.89,640.37c0,4.02-2.01,6.23-5.65,6.23c-3.65,0-5.74-2.32-5.74-6.38v-12.1h-3.21v12.25
				c0,5.71,3.4,9.26,8.89,9.26c5.58,0,8.91-3.53,8.91-9.44v-12.07h-3.2V640.37z"/>
			<polygon class="st0" points="540.66,628.12 537.46,628.12 537.46,649.31 552.07,649.31 552.07,646.28 540.66,646.28 			"/>
			<polygon class="st0" points="568.76,628.12 551.91,628.12 551.91,631.15 558.72,631.15 558.72,649.31 561.95,649.31 
				561.95,631.15 568.76,631.15 			"/>
			<path class="st0" d="M578.05,627.98l-9.65,21.34h3.35l2.4-5.36h10.44l2.38,5.36h3.47l-9.65-21.34H578.05z M575.46,640.98
				l3.92-8.76l3.9,8.76H575.46z"/>
			<polygon class="st0" points="609.05,643.5 596.96,628.12 594.13,628.12 594.13,649.31 597.28,649.31 597.28,633.55 
				609.69,649.31 612.2,649.31 612.2,628.12 609.05,628.12 			"/>
			<polygon class="st0" points="616.44,631.15 623.24,631.15 623.24,649.31 626.48,649.31 626.48,631.15 633.28,631.15 
				633.28,628.12 616.44,628.12 			"/>
			<path class="st0" d="M644.91,637.17L644.91,637.17c-4.35-0.93-5.14-1.92-5.14-3.52c0-1.67,1.59-2.84,3.86-2.84
				c2.04,0,3.81,0.67,5.56,2.1l0.37,0.3l1.89-2.5l-0.35-0.28c-2.26-1.82-4.48-2.59-7.41-2.59c-4.13,0-7.12,2.53-7.12,6.02
				c0,3.96,2.86,5.39,7.17,6.33c4.15,0.88,4.91,1.84,4.91,3.43c0,1.81-1.63,3.02-4.06,3.02c-2.56,0-4.49-0.8-6.64-2.75l-0.35-0.32
				l-2.01,2.38l0.33,0.3c2.57,2.29,5.3,3.36,8.59,3.36c4.34,0,7.38-2.56,7.38-6.22C651.87,640.09,649.79,638.23,644.91,637.17z"/>
			<rect x="665.06" y="638.52" class="st0" width="8.97" height="3.26"/>
			<path class="st0" d="M695.95,627.98l-9.65,21.34h3.35l2.4-5.36h10.44l2.38,5.36h3.47l-9.65-21.34H695.95z M693.36,640.98
				l3.92-8.76l3.9,8.76H693.36z"/>
			<path class="st0" d="M726.86,643.83c-1.76,1.68-3.49,2.8-6.23,2.8c-4.21,0-7.39-3.41-7.39-7.94c0-4.49,3.18-7.88,7.39-7.88
				c2.28,0,4.1,0.79,6.06,2.65l0.34,0.32l2.19-2.35l-0.33-0.31c-1.84-1.74-4.11-3.34-8.22-3.34c-6.11,0-10.71,4.72-10.71,10.97
				c0,6.22,4.57,10.91,10.62,10.91c4.22,0,6.63-1.87,8.44-3.7l0.32-0.33l-2.15-2.11L726.86,643.83z"/>
			<path class="st0" d="M748.52,643.83c-1.76,1.68-3.49,2.8-6.23,2.8c-4.21,0-7.39-3.41-7.39-7.94c0-4.49,3.18-7.88,7.39-7.88
				c2.29,0,4.1,0.79,6.06,2.65l0.34,0.32l2.19-2.35l-0.33-0.31c-1.84-1.73-4.11-3.34-8.22-3.34c-6.11,0-10.71,4.72-10.71,10.97
				c0,6.22,4.57,10.91,10.62,10.91c4.22,0,6.63-1.87,8.44-3.7l0.32-0.33l-2.15-2.11L748.52,643.83z"/>
			<path class="st0" d="M764.1,627.77c-6.07,0-10.83,4.82-10.83,10.97c0,6.22,4.63,10.91,10.77,10.91c6.07,0,10.83-4.82,10.83-10.97
				C774.87,632.47,770.24,627.77,764.1,627.77z M764.1,646.63c-4.3,0-7.54-3.41-7.54-7.94c0-4.49,3.22-7.88,7.48-7.88
				c4.3,0,7.53,3.41,7.53,7.94C771.58,643.24,768.37,646.63,764.1,646.63z"/>
			<path class="st0" d="M793.94,640.37c0,4.02-2.01,6.23-5.65,6.23c-3.65,0-5.74-2.32-5.74-6.38v-12.1h-3.21v12.25
				c0,5.71,3.41,9.26,8.89,9.26c5.58,0,8.91-3.53,8.91-9.44v-12.07h-3.2V640.37z"/>
			<polygon class="st0" points="817.43,643.5 805.34,628.12 802.51,628.12 802.51,649.31 805.66,649.31 805.66,633.55 
				818.07,649.31 820.57,649.31 820.57,628.12 817.43,628.12 			"/>
			<polygon class="st0" points="841.66,628.12 824.81,628.12 824.81,631.15 831.62,631.15 831.62,649.31 834.85,649.31 
				834.85,631.15 841.66,631.15 			"/>
			<path class="st0" d="M850.95,627.98l-9.65,21.34h3.35l2.4-5.36h10.44l2.38,5.36h3.47l-9.65-21.34H850.95z M848.36,640.98
				l3.92-8.76l3.9,8.76H848.36z"/>
			<polygon class="st0" points="881.95,643.5 869.86,628.12 867.04,628.12 867.04,649.31 870.18,649.31 870.18,633.55 
				882.59,649.31 885.1,649.31 885.1,628.12 881.95,628.12 			"/>
			<polygon class="st0" points="889.34,631.15 896.14,631.15 896.14,649.31 899.38,649.31 899.38,631.15 906.18,631.15 
				906.18,628.12 889.34,628.12 			"/>
			<path class="st0" d="M917.81,637.17L917.81,637.17c-4.35-0.93-5.14-1.92-5.14-3.52c0-1.67,1.59-2.84,3.86-2.84
				c2.04,0,3.81,0.67,5.56,2.1l0.37,0.3l1.89-2.5l-0.35-0.28c-2.26-1.82-4.48-2.59-7.41-2.59c-4.13,0-7.12,2.53-7.12,6.02
				c0,3.96,2.86,5.39,7.17,6.33c4.15,0.88,4.91,1.84,4.91,3.43c0,1.81-1.63,3.02-4.06,3.02c-2.56,0-4.49-0.8-6.64-2.75l-0.35-0.32
				l-2.01,2.38l0.33,0.3c2.57,2.29,5.3,3.36,8.59,3.36c4.35,0,7.38-2.56,7.38-6.22C924.78,640.09,922.69,638.23,917.81,637.17z"/>
			<path class="st0" d="M955.58,639.41l0.2-0.42l-2.73-1.26l-0.19,0.43c-0.65,1.52-1.35,2.85-2.08,3.98l-3.75-3.82
				c2.97-1.21,4.42-3.01,4.42-5.48c0-2.89-2.31-5.06-5.38-5.06c-3.37,0-5.82,2.23-5.82,5.3c0,1.7,0.68,2.99,1.74,4.31
				c-3.02,1.35-4.61,3.43-4.61,6.06c0,3.57,2.87,6.16,6.83,6.16c2.49,0,4.66-0.97,6.63-2.95l3.14,3.22l2.47-1.9l-3.62-3.71
				C953.73,643.03,954.59,641.51,955.58,639.41z M945.98,630.58c1.4,0,2.41,1,2.41,2.38c0,1.47-1.06,2.53-3.32,3.35
				c-1.3-1.43-1.7-2.21-1.7-3.23C943.37,631.6,944.44,630.58,945.98,630.58z M944.39,646.75c-2.19,0-3.77-1.43-3.77-3.39
				c0-1.63,1.17-2.98,3.3-3.84l4.9,5.06C947.41,646.02,945.92,646.75,944.39,646.75z"/>
			<path class="st0" d="M977.19,627.98l-9.65,21.34h3.35l2.4-5.36h10.44l2.38,5.36h3.47l-9.65-21.34H977.19z M974.61,640.98
				l3.93-8.76l3.9,8.76H974.61z"/>
			<path class="st0" d="M1006.83,640.37c0,4.02-2.01,6.23-5.65,6.23c-3.65,0-5.74-2.32-5.74-6.38v-12.1h-3.21v12.25
				c0,5.71,3.41,9.26,8.89,9.26c5.58,0,8.91-3.53,8.91-9.44v-12.07h-3.2V640.37z"/>
			<path class="st0" d="M1022.9,628.12h-7.5v21.19h7.5c6.51,0,11.23-4.47,11.23-10.62C1034.13,632.57,1029.41,628.12,1022.9,628.12z
				 M1022.9,646.28h-4.29v-15.13h4.29c4.67,0,7.94,3.12,7.94,7.59C1030.84,643.18,1027.58,646.28,1022.9,646.28z"/>
			<rect x="1039.12" y="628.12" class="st0" width="3.21" height="21.19"/>
			<polygon class="st0" points="1046.77,631.15 1053.58,631.15 1053.58,649.31 1056.81,649.31 1056.81,631.15 1063.62,631.15 
				1063.62,628.12 1046.77,628.12 			"/>
			<path class="st0" d="M1076.39,627.77c-6.07,0-10.83,4.82-10.83,10.97c0,6.22,4.63,10.91,10.77,10.91
				c6.07,0,10.83-4.82,10.83-10.97C1087.16,632.47,1082.53,627.77,1076.39,627.77z M1076.39,646.63c-4.3,0-7.54-3.41-7.54-7.94
				c0-4.49,3.22-7.88,7.48-7.88c4.3,0,7.53,3.41,7.53,7.94C1083.87,643.24,1080.66,646.63,1076.39,646.63z"/>
			<path class="st0" d="M1108.91,634.63c0-3.96-3.06-6.51-7.79-6.51h-9.18v21.19h3.2v-7.88h5.11l5.88,7.88h3.96l-6.35-8.45
				C1106.99,640.03,1108.91,637.74,1108.91,634.63z M1095.15,638.46v-7.31h5.8c3,0,4.73,1.3,4.73,3.57c0,2.27-1.87,3.74-4.75,3.74
				H1095.15z"/>
			<path class="st0" d="M1121.58,637.17L1121.58,637.17c-4.35-0.93-5.14-1.92-5.14-3.52c0-1.67,1.59-2.84,3.86-2.84
				c2.04,0,3.81,0.67,5.56,2.1l0.37,0.3l1.89-2.5l-0.35-0.28c-2.27-1.82-4.48-2.59-7.41-2.59c-4.13,0-7.12,2.53-7.12,6.02
				c0,3.96,2.86,5.39,7.17,6.33c4.15,0.88,4.91,1.84,4.91,3.43c0,1.81-1.63,3.02-4.06,3.02c-2.56,0-4.49-0.8-6.64-2.75l-0.35-0.32
				l-2.01,2.38l0.33,0.3c2.57,2.29,5.3,3.36,8.59,3.36c4.34,0,7.38-2.56,7.38-6.22C1128.55,640.09,1126.47,638.23,1121.58,637.17z"
				/>
		</g>
		<g>
			<polygon class="st0" points="423.41,599.46 432.62,599.46 432.62,578.11 459.07,578.11 459.07,569.72 432.62,569.72 
				432.62,555.41 462.44,555.41 462.44,547.02 423.41,547.02 			"/>
			<path class="st0" d="M497.29,546.12c-16.11,0-27.5,12.36-27.5,27.12v0.15c0,14.76,11.24,26.97,27.35,26.97
				c16.11,0,27.5-12.36,27.5-27.12v-0.15C524.64,558.33,513.4,546.12,497.29,546.12z M514.97,573.39c0,10.19-7.27,18.51-17.68,18.51
				c-10.41,0-17.83-8.47-17.83-18.65v-0.15c0-10.19,7.27-18.51,17.68-18.51c10.41,0,17.83,8.47,17.83,18.66V573.39z"/>
			<path class="st0" d="M570.65,577.21c0,9.67-5.02,14.61-13.19,14.61c-8.24,0-13.26-5.24-13.26-14.98v-29.82h-9.22v30.19
				c0,15.21,8.69,23.07,22.33,23.07c13.71,0,22.55-7.87,22.55-23.52v-29.74h-9.21V577.21z"/>
			<path class="st0" d="M609.25,546.64l-23.08,52.82h9.44l5.39-12.66h24.8l5.32,12.66h9.74l-23.08-52.82H609.25z M604.38,578.64
				l8.99-20.98l9.07,20.98H604.38z"/>
			<path class="st0" d="M669.42,547.02h-19.55v52.45h19.55c16.48,0,27.87-11.46,27.87-26.22v-0.15
				C697.29,558.33,685.9,547.02,669.42,547.02z M687.63,573.39c0,10.27-7.19,17.68-18.21,17.68h-10.34v-35.66h10.34
				c11.01,0,18.21,7.57,18.21,17.83V573.39z"/>
			<polygon class="st0" points="740.16,577.14 766.46,577.14 766.46,568.89 740.16,568.89 740.16,555.26 769.83,555.26 
				769.83,547.02 730.95,547.02 730.95,599.46 770.2,599.46 770.2,591.22 740.16,591.22 			"/>
			<polygon class="st0" points="790.37,547.02 781.15,547.02 781.15,599.46 817.94,599.46 817.94,591.07 790.37,591.07 			"/>
			<rect x="821.99" y="572.04" class="st0" width="22.18" height="8.91"/>
			<polygon class="st0" points="917,547.02 904.49,585.9 891.6,546.87 883.81,546.87 870.92,585.9 858.41,547.02 848.45,547.02 
				866.73,599.84 874.67,599.84 887.55,562.15 900.44,599.84 908.38,599.84 926.66,547.02 			"/>
			<path class="st0" d="M947.96,546.64l-23.08,52.82h9.44l5.39-12.66h24.8l5.32,12.66h9.74l-23.08-52.82H947.96z M943.09,578.64
				l8.99-20.98l9.07,20.98H943.09z"/>
			<polygon class="st0" points="1020.64,547.02 978.09,547.02 978.09,555.56 994.72,555.56 994.72,599.46 1004.01,599.46 
				1004.01,555.56 1020.64,555.56 			"/>
			<path class="st0" d="M1042.23,546.64l-23.07,52.82h9.44l5.39-12.66h24.8l5.32,12.66h9.74l-23.08-52.82H1042.23z M1037.36,578.64
				l8.99-20.98l9.06,20.98H1037.36z"/>
			<polygon class="st0" points="1119.48,547.02 1119.48,583.28 1091.39,547.02 1082.85,547.02 1082.85,599.46 1091.91,599.46 
				1091.91,562.15 1120.83,599.46 1128.55,599.46 1128.55,547.02 			"/>
		</g>
	</g>
</g>
</svg>
