<?xml version="1.0" encoding="utf-8"?>
<!-- Generator: Adobe Illustrator 25.0.0, SVG Export Plug-In . SVG Version: 6.00 Build 0)  -->
<svg version="1.1" id="Layer_1" xmlns="http://www.w3.org/2000/svg" xmlns:xlink="http://www.w3.org/1999/xlink" x="0px" y="0px"
	 viewBox="0 0 1200 1200" style="enable-background:new 0 0 1200 1200;" xml:space="preserve">
<style type="text/css">
	.st0{fill:#E7E7E7;}
	.st1{fill:#002E5D;}
	.st2{fill:#FFFFFF;}
	.st3{fill:#E41E34;}
</style>
<rect x="0" y="0" class="st0" width="1200" height="1200"/>
<g>
	<g>
		<g>
			<path class="st1" d="M589.51,549.76H514.9v3.67h1.09c1.63,0,4.4,0,6.67,1.11c2.67,1.31,3.97,3.81,3.97,7.64v70.48l9.97,17.58h6.1
				v-48.68h6.64c3.83,0,6.33,1.3,7.64,3.97c1.11,2.27,1.11,5.02,1.11,6.67v1.09h3.67v-27.55h-3.67v1.09c0,1.65,0,4.4-1.11,6.67
				c-1.31,2.67-3.81,3.97-7.64,3.97h-6.64v-35.7c0-5.54,3.13-8.35,9.29-8.35h6.2c4.2,0,8.36,0.86,12.05,2.49
				c5.05,3.03,8.94,8.59,9.26,9.05l47.58,85.27h6.1v-21.57l-43.4-78.42L589.51,549.76z"/>
			<path class="st1" d="M611.05,549.76v4.21h0.96c7.69,0,14.96,10.41,15.37,11.01l48.39,84.78l0.28,0.48h6.1v-21.57l-44.76-78.91
				H611.05z"/>
			<path class="st1" d="M662.83,549.76v4.07h0.96c12.91,0,17.52,8.98,17.52,17.38v7.02h3.8v-28.48H662.83z"/>
		</g>
		<g>
			<g>
				<path class="st1" d="M735.72,626.24c-1.05,1.01-2.09,1.68-3.73,1.68c-2.52,0-4.42-2.04-4.42-4.75c0-2.69,1.9-4.72,4.42-4.72
					c1.37,0,2.45,0.48,3.63,1.59l0.2,0.19l1.31-1.41l-0.2-0.19c-1.1-1.04-2.46-2-4.92-2c-3.66,0-6.41,2.82-6.41,6.57
					c0,3.73,2.73,6.53,6.36,6.53c2.52,0,3.97-1.12,5.05-2.21l0.19-0.2l-1.29-1.26L735.72,626.24z"/>
				<path class="st1" d="M745.05,616.63c-3.63,0-6.48,2.89-6.48,6.57c0,3.73,2.77,6.53,6.45,6.53c3.63,0,6.48-2.88,6.48-6.57
					C751.49,619.44,748.72,616.63,745.05,616.63z M745.05,627.92c-2.57,0-4.51-2.04-4.51-4.75c0-2.69,1.92-4.72,4.48-4.72
					c2.57,0,4.51,2.04,4.51,4.75C749.52,625.89,747.6,627.92,745.05,627.92z"/>
				<polygon class="st1" points="763.29,626.04 756.05,616.84 754.36,616.84 754.36,629.52 756.24,629.52 756.24,620.09 
					763.67,629.52 765.17,629.52 765.17,616.84 763.29,616.84 				"/>
				<path class="st1" d="M773.26,622.25L773.26,622.25c-2.6-0.56-3.08-1.15-3.08-2.11c0-1,0.95-1.7,2.31-1.7
					c1.22,0,2.28,0.4,3.33,1.25l0.22,0.18l1.13-1.5l-0.21-0.17c-1.36-1.09-2.68-1.55-4.44-1.55c-2.47,0-4.26,1.52-4.26,3.6
					c0,2.37,1.71,3.23,4.29,3.79c2.48,0.52,2.94,1.1,2.94,2.06c0,1.08-0.98,1.81-2.43,1.81c-1.53,0-2.69-0.48-3.98-1.65l-0.21-0.19
					l-1.2,1.43l0.2,0.18c1.54,1.37,3.17,2.01,5.14,2.01c2.6,0,4.42-1.53,4.42-3.72C777.43,624,776.18,622.89,773.26,622.25z"/>
				<path class="st1" d="M788.74,624.17c0,2.41-1.2,3.73-3.38,3.73c-2.18,0-3.44-1.39-3.44-3.82v-7.25H780v7.33
					c0,3.42,2.04,5.55,5.32,5.55c3.34,0,5.34-2.11,5.34-5.65v-7.23h-1.92V624.17z"/>
				<polygon class="st1" points="795.79,616.84 793.87,616.84 793.87,629.52 802.62,629.52 802.62,627.71 795.79,627.71 				"/>
				<polygon class="st1" points="812.61,616.84 802.52,616.84 802.52,618.65 806.6,618.65 806.6,629.52 808.53,629.52 
					808.53,618.65 812.61,618.65 				"/>
				<path class="st1" d="M818.17,616.75l-5.78,12.77h2.01l1.44-3.21h6.25l1.42,3.21h2.08l-5.78-12.77H818.17z M816.62,624.53
					l2.35-5.24l2.34,5.24H816.62z"/>
				<polygon class="st1" points="836.73,626.04 829.49,616.84 827.8,616.84 827.8,629.52 829.69,629.52 829.69,620.09 
					837.12,629.52 838.62,629.52 838.62,616.84 836.73,616.84 				"/>
				<polygon class="st1" points="841.15,618.65 845.23,618.65 845.23,629.52 847.16,629.52 847.16,618.65 851.24,618.65 
					851.24,616.84 841.15,616.84 				"/>
				<path class="st1" d="M858.2,622.25L858.2,622.25c-2.6-0.56-3.08-1.15-3.08-2.11c0-1,0.95-1.7,2.31-1.7
					c1.22,0,2.28,0.4,3.33,1.25l0.22,0.18l1.13-1.5l-0.21-0.17c-1.36-1.09-2.68-1.55-4.44-1.55c-2.47,0-4.26,1.52-4.26,3.6
					c0,2.37,1.72,3.23,4.29,3.79c2.48,0.52,2.94,1.1,2.94,2.06c0,1.08-0.98,1.81-2.43,1.81c-1.53,0-2.69-0.48-3.98-1.65l-0.21-0.19
					l-1.2,1.43l0.2,0.18c1.54,1.37,3.17,2.01,5.14,2.01c2.6,0,4.42-1.53,4.42-3.72C862.37,624,861.12,622.89,858.2,622.25z"/>
				<rect x="870.26" y="623.06" class="st1" width="5.37" height="1.95"/>
				<path class="st1" d="M888.75,616.75l-5.78,12.77h2.01l1.44-3.21h6.25l1.42,3.21h2.08l-5.78-12.77H888.75z M887.21,624.53
					l2.35-5.24l2.34,5.24H887.21z"/>
				<path class="st1" d="M907.26,626.24c-1.05,1.01-2.09,1.68-3.73,1.68c-2.52,0-4.43-2.04-4.43-4.75c0-2.69,1.9-4.72,4.43-4.72
					c1.37,0,2.45,0.48,3.63,1.59l0.2,0.19l1.31-1.41l-0.2-0.19c-1.1-1.04-2.46-2-4.92-2c-3.66,0-6.41,2.82-6.41,6.57
					c0,3.73,2.73,6.53,6.36,6.53c2.53,0,3.97-1.12,5.05-2.21l0.19-0.2l-1.29-1.26L907.26,626.24z"/>
				<path class="st1" d="M920.23,626.24c-1.05,1.01-2.09,1.68-3.73,1.68c-2.52,0-4.43-2.04-4.43-4.75c0-2.69,1.9-4.72,4.43-4.72
					c1.37,0,2.45,0.48,3.63,1.59l0.2,0.19l1.31-1.41l-0.2-0.19c-1.1-1.04-2.46-2-4.92-2c-3.66,0-6.41,2.82-6.41,6.57
					c0,3.73,2.73,6.53,6.36,6.53c2.52,0,3.97-1.12,5.05-2.21l0.19-0.2l-1.29-1.26L920.23,626.24z"/>
				<path class="st1" d="M929.55,616.63c-3.63,0-6.48,2.89-6.48,6.57c0,3.73,2.77,6.53,6.45,6.53c3.63,0,6.48-2.88,6.48-6.57
					C936,619.44,933.23,616.63,929.55,616.63z M929.55,627.92c-2.57,0-4.51-2.04-4.51-4.75c0-2.69,1.92-4.72,4.48-4.72
					c2.57,0,4.51,2.04,4.51,4.75C934.03,625.89,932.11,627.92,929.55,627.92z"/>
				<path class="st1" d="M947.42,624.17c0,2.41-1.2,3.73-3.38,3.73c-2.18,0-3.44-1.39-3.44-3.82v-7.25h-1.92v7.33
					c0,3.42,2.04,5.55,5.32,5.55c3.34,0,5.34-2.11,5.34-5.65v-7.23h-1.92V624.17z"/>
				<polygon class="st1" points="961.48,626.04 954.24,616.84 952.55,616.84 952.55,629.52 954.43,629.52 954.43,620.09 
					961.86,629.52 963.36,629.52 963.36,616.84 961.48,616.84 				"/>
				<polygon class="st1" points="975.98,616.84 965.9,616.84 965.9,618.65 969.97,618.65 969.97,629.52 971.91,629.52 
					971.91,618.65 975.98,618.65 				"/>
				<path class="st1" d="M981.55,616.75l-5.78,12.77h2.01l1.44-3.21h6.25l1.42,3.21h2.08l-5.78-12.77H981.55z M980,624.53l2.35-5.24
					l2.34,5.24H980z"/>
				<polygon class="st1" points="1000.11,626.04 992.87,616.84 991.17,616.84 991.17,629.52 993.06,629.52 993.06,620.09 
					1000.49,629.52 1001.99,629.52 1001.99,616.84 1000.11,616.84 				"/>
				<polygon class="st1" points="1004.53,618.65 1008.6,618.65 1008.6,629.52 1010.54,629.52 1010.54,618.65 1014.61,618.65 
					1014.61,616.84 1004.53,616.84 				"/>
				<path class="st1" d="M1021.57,622.25L1021.57,622.25c-2.6-0.56-3.08-1.15-3.08-2.11c0-1,0.95-1.7,2.31-1.7
					c1.22,0,2.28,0.4,3.33,1.25l0.22,0.18l1.13-1.5l-0.21-0.17c-1.36-1.09-2.68-1.55-4.44-1.55c-2.47,0-4.26,1.52-4.26,3.6
					c0,2.37,1.71,3.23,4.29,3.79c2.48,0.52,2.94,1.1,2.94,2.06c0,1.08-0.98,1.81-2.43,1.81c-1.53,0-2.69-0.48-3.98-1.65l-0.21-0.19
					l-1.2,1.43l0.2,0.18c1.54,1.37,3.17,2.01,5.14,2.01c2.6,0,4.42-1.53,4.42-3.72C1025.74,624,1024.49,622.89,1021.57,622.25z"/>
				<path class="st1" d="M1044.18,623.59l0.12-0.25l-1.63-0.75l-0.11,0.26c-0.39,0.91-0.81,1.71-1.25,2.38l-2.24-2.29
					c1.78-0.73,2.65-1.8,2.65-3.28c0-1.73-1.39-3.03-3.22-3.03c-2.02,0-3.48,1.33-3.48,3.17c0,1.02,0.41,1.79,1.04,2.58
					c-1.81,0.81-2.76,2.05-2.76,3.63c0,2.14,1.72,3.69,4.09,3.69c1.49,0,2.79-0.58,3.97-1.77l1.88,1.93l1.48-1.13l-2.17-2.22
					C1043.08,625.76,1043.59,624.85,1044.18,623.59z M1038.43,618.3c0.84,0,1.44,0.6,1.44,1.42c0,0.88-0.63,1.52-1.99,2
					c-0.78-0.85-1.02-1.32-1.02-1.93C1036.87,618.92,1037.51,618.3,1038.43,618.3z M1037.48,627.98c-1.31,0-2.26-0.85-2.26-2.03
					c0-0.98,0.7-1.79,1.98-2.3l2.93,3.03C1039.29,627.55,1038.4,627.98,1037.48,627.98z"/>
				<path class="st1" d="M1057.12,616.75l-5.78,12.77h2.01l1.44-3.21h6.25l1.42,3.21h2.08l-5.78-12.77H1057.12z M1055.57,624.53
					l2.35-5.24l2.33,5.24H1055.57z"/>
				<path class="st1" d="M1074.87,624.17c0,2.41-1.2,3.73-3.38,3.73c-2.18,0-3.44-1.39-3.44-3.82v-7.25h-1.92v7.33
					c0,3.42,2.04,5.55,5.32,5.55c3.34,0,5.34-2.11,5.34-5.65v-7.23h-1.92V624.17z"/>
				<path class="st1" d="M1084.48,616.84H1080v12.69h4.49c3.9,0,6.72-2.68,6.72-6.36C1091.21,619.5,1088.38,616.84,1084.48,616.84z
					 M1084.48,627.71h-2.57v-9.06h2.57c2.8,0,4.75,1.87,4.75,4.55C1089.24,625.85,1087.28,627.71,1084.48,627.71z"/>
				<rect x="1094.2" y="616.84" class="st1" width="1.92" height="12.69"/>
				<polygon class="st1" points="1098.77,618.65 1102.85,618.65 1102.85,629.52 1104.78,629.52 1104.78,618.65 1108.86,618.65 
					1108.86,616.84 1098.77,616.84 				"/>
				<path class="st1" d="M1116.51,616.63c-3.63,0-6.48,2.89-6.48,6.57c0,3.73,2.77,6.53,6.45,6.53c3.63,0,6.48-2.88,6.48-6.57
					C1122.95,619.44,1120.18,616.63,1116.51,616.63z M1116.51,627.92c-2.57,0-4.51-2.04-4.51-4.75c0-2.69,1.92-4.72,4.48-4.72
					c2.57,0,4.51,2.04,4.51,4.75C1120.98,625.89,1119.06,627.92,1116.51,627.92z"/>
				<path class="st1" d="M1135.97,620.73c0-2.37-1.83-3.9-4.66-3.9h-5.49v12.69h1.92v-4.72h3.06l3.52,4.72h2.37l-3.8-5.06
					C1134.83,623.97,1135.97,622.6,1135.97,620.73z M1127.74,623.03v-4.38h3.47c1.8,0,2.83,0.78,2.83,2.14
					c0,1.36-1.12,2.24-2.85,2.24H1127.74z"/>
				<path class="st1" d="M1143.56,622.25L1143.56,622.25c-2.6-0.56-3.08-1.15-3.08-2.11c0-1,0.95-1.7,2.31-1.7
					c1.22,0,2.28,0.4,3.33,1.25l0.22,0.18l1.13-1.5l-0.21-0.17c-1.36-1.09-2.68-1.55-4.44-1.55c-2.47,0-4.26,1.52-4.26,3.6
					c0,2.37,1.71,3.23,4.29,3.79c2.48,0.52,2.94,1.1,2.94,2.06c0,1.08-0.98,1.81-2.43,1.81c-1.53,0-2.69-0.48-3.98-1.65l-0.21-0.19
					l-1.2,1.43l0.2,0.18c1.54,1.37,3.17,2.01,5.14,2.01c2.6,0,4.42-1.53,4.42-3.72C1147.73,624,1146.48,622.89,1143.56,622.25z"/>
			</g>
			<g>
				<polygon class="st1" points="725.6,599.68 731.11,599.68 731.11,586.9 746.95,586.9 746.95,581.87 731.11,581.87 731.11,573.31 
					748.96,573.31 748.96,568.28 725.6,568.28 				"/>
				<path class="st1" d="M769.83,567.75c-9.64,0-16.46,7.4-16.46,16.24v0.09c0,8.84,6.73,16.15,16.37,16.15
					c9.64,0,16.46-7.4,16.46-16.24v-0.09C786.2,575.06,779.47,567.75,769.83,567.75z M780.41,584.07c0,6.1-4.35,11.08-10.58,11.08
					c-6.23,0-10.67-5.07-10.67-11.17v-0.09c0-6.1,4.35-11.08,10.59-11.08c6.23,0,10.67,5.07,10.67,11.17V584.07z"/>
				<path class="st1" d="M813.74,586.36c0,5.79-3.01,8.75-7.89,8.75c-4.93,0-7.94-3.14-7.94-8.97v-17.85h-5.52v18.08
					c0,9.1,5.2,13.81,13.37,13.81c8.21,0,13.5-4.71,13.5-14.08v-17.81h-5.52V586.36z"/>
				<path class="st1" d="M836.85,568.06l-13.81,31.62h5.65l3.23-7.58h14.85l3.18,7.58h5.83l-13.81-31.62H836.85z M833.93,587.21
					l5.38-12.56l5.43,12.56H833.93z"/>
				<path class="st1" d="M872.87,568.28h-11.71v31.4h11.71c9.87,0,16.68-6.86,16.68-15.7v-0.09
					C889.56,575.06,882.74,568.28,872.87,568.28z M883.77,584.07c0,6.15-4.31,10.59-10.9,10.59h-6.19v-21.35h6.19
					c6.59,0,10.9,4.53,10.9,10.68V584.07z"/>
				<polygon class="st1" points="915.22,586.31 930.96,586.31 930.96,581.38 915.22,581.38 915.22,573.22 932.98,573.22 
					932.98,568.28 909.7,568.28 909.7,599.68 933.21,599.68 933.21,594.75 915.22,594.75 				"/>
				<polygon class="st1" points="945.28,568.28 939.76,568.28 939.76,599.68 961.78,599.68 961.78,594.66 945.28,594.66 				"/>
				<rect x="964.21" y="583.26" class="st1" width="13.28" height="5.34"/>
				<polygon class="st1" points="1021.09,568.28 1013.6,591.56 1005.88,568.19 1001.22,568.19 993.5,591.56 986.01,568.28 
					980.05,568.28 990.99,599.9 995.74,599.9 1003.46,577.34 1011.17,599.9 1015.93,599.9 1026.87,568.28 				"/>
				<path class="st1" d="M1039.62,568.06l-13.81,31.62h5.65l3.23-7.58h14.85l3.18,7.58h5.83l-13.81-31.62H1039.62z M1036.7,587.21
					l5.38-12.56l5.43,12.56H1036.7z"/>
				<polygon class="st1" points="1083.13,568.28 1057.66,568.28 1057.66,573.4 1067.61,573.4 1067.61,599.68 1073.17,599.68 
					1073.17,573.4 1083.13,573.4 				"/>
				<path class="st1" d="M1096.05,568.06l-13.81,31.62h5.65l3.23-7.58h14.85l3.19,7.58h5.83l-13.81-31.62H1096.05z M1093.14,587.21
					l5.38-12.56l5.43,12.56H1093.14z"/>
				<polygon class="st1" points="1142.3,568.28 1142.3,589.99 1125.48,568.28 1120.37,568.28 1120.37,599.68 1125.8,599.68 
					1125.8,577.34 1143.11,599.68 1147.73,599.68 1147.73,568.28 				"/>
			</g>
		</g>
	</g>
	<g>
		<g>
			<g>
				<rect x="65.11" y="567.7" class="st1" width="5.35" height="5.39"/>
				<path class="st1" d="M184.23,577.48c-5.11,0-9.78,2.63-14.25,8.41l0.59-17.6h-5.35v25.82h-7.79h-1.16h-8.47h-1.12h-8.51h-1.12
					h-8.52h-1.12h-8.51h-1.12h-8.51h-1.12h-8.52h-1.12h-7.89H88.9h-6.18c0.2-1.02,0.29-2,0.29-3.01v-13.52l-5.49,0v12.89
					c0,3.16-0.78,5.88-2.38,8.17c-1.9,2.58-4.38,3.89-7.44,3.89c-3.11,0-5.59-1.31-7.48-3.89c-1.61-2.28-2.44-5.01-2.44-8.17v-12.89
					h-5.49v13.52c0,4.71,1.56,8.65,4.62,11.86c2.97,3.16,6.57,4.77,10.79,4.77c2.78,0,5.3-0.73,7.69-2.24
					c2.28-1.41,4.09-3.35,5.44-5.83h8.08h1.74h7.89h1.12h8.52h1.12h8.51h1.12h8.51h1.12h8.52h1.12h8.51h1.12h8.47h1.16h39.15
					c0.15-1.8,0.24-3.45,0.24-5.06C196.83,583.22,192.65,577.48,184.23,577.48z M191.23,594.11l-21.79,0
					c3.31-6.91,8.8-11.77,14.3-11.77c4.72,0,7.49,4.04,7.49,10.21V594.11z"/>
				<path class="st1" d="M272.4,589c0,1.75-0.15,2.92-0.39,3.5c-0.53,1.07-1.66,1.61-3.45,1.61h-3.35h-1.26h-8.37h-1.12h-6.2h-1.12
					h-8.51h-1.12h-8.42h-1.21h-5.45v-5.64c0-6.37-4.18-10.94-10.12-10.94c-6.18,0-10.89,4.38-10.89,10.79
					c0,6.42,4.77,11.33,10.65,11.33h5.2c-0.78,2.58-2.57,3.74-5.39,3.74v4.28c6.32,0,9.87-2.67,10.6-8.02h6.61l0,0l8.42,0v0l10.75,0
					h6.2h1.12h8.37h1.26h4.47c5.45,0,8.17-2.92,8.17-8.8v-22.56h-5.44V589z M216.97,594.11h-4.81c-2.92,0-5.2-2.72-5.2-6.08
					c0-3.26,2.04-5.49,5.25-5.49c2.82,0,4.47,2.04,4.76,4.91V594.11z"/>
				<rect x="282.85" y="568.24" class="st1" width="5.4" height="31.41"/>
				<path class="st1" d="M317.78,578.35c-1.26-0.43-2.24-0.63-2.92-0.68c-0.68-0.05-2.38-0.1-5.06-0.1v4.96
					c1.75,0,3.4,0.1,4.91,0.44c4.92,1.07,7.4,4.76,7.4,11.13H304.5v5.54h23.1v-5.54C327.55,585.79,324.3,580.54,317.78,578.35z"/>
				<rect x="332.62" y="568.24" class="st1" width="5.4" height="31.41"/>
				<path class="st1" d="M357.85,571.74h-4.67c-0.58-0.25-0.87-0.83-0.87-1.7c0-1.22,0.49-1.85,1.41-1.85
					c0.63,0,1.07,0.44,1.36,1.26l2.72-1.26c-0.82-1.9-2.19-2.87-4.08-2.87c-2.58,0-4.57,2.09-4.57,4.82c0,0.48,0.1,1.02,0.24,1.61
					h-2.33v3.06h10.79V571.74z"/>
				<rect x="460.84" y="567.61" class="st1" width="5.3" height="5.4"/>
				<path class="st1" d="M463.51,577.09c-6.47,0-10.99,4.62-10.99,11.23c0,2.09,0.48,4.04,1.41,5.79h-6.71h-1.02h-8.62h-1.12h-8.51
					h-1.12h-8.51h-1.12h-8.52h-1.12h-8.51h-1.12h-8.51h-1.12h-8.52h-1.12h-8.43h-1.21h-5.45v-5.64c0-6.37-4.18-10.94-10.12-10.94
					c-6.17,0-10.89,4.38-10.89,10.79c0,6.42,4.77,11.33,10.65,11.33h5.2c-0.78,2.58-2.57,3.74-5.39,3.74v4.28
					c6.32,0,9.87-2.67,10.6-8.02h5.4h1.21h8.43h1.12h8.52h1.12h8.51h1.12h8.51h1.12h8.52h1.12h8.51h1.12h8.51h1.12h8.62h1.02h16.29
					c6.52,0,10.89-4.77,10.89-11.18C474.4,582.09,469.98,577.09,463.51,577.09z M358.15,594.11h-4.81c-2.92,0-5.21-2.72-5.21-6.08
					c0-3.26,2.05-5.49,5.26-5.49c2.82,0,4.47,2.04,4.76,4.91V594.11z M463.61,594.64c-3.26,0-5.49-2.87-5.49-6.37
					c0-3.79,2.09-6.22,5.2-6.22c3.26,0,5.49,2.72,5.49,6.42C468.81,592.06,466.77,594.64,463.61,594.64z"/>
			</g>
			<g>
				<path class="st1" d="M62.08,625.75c0,3.46-1.56,5.61-4.06,5.61c-2.48,0-4.08-2.2-4.08-5.61v-5.33h-1.66v5.61
					c0,3.97,2.47,6.96,5.75,6.96c3.27,0,5.73-2.99,5.73-6.96v-5.61h-1.66V625.75z"/>
				<rect x="57.15" y="617.3" class="st1" width="1.68" height="1.96"/>
				<rect x="139.08" y="630.74" class="st1" width="1.7" height="1.96"/>
				<path class="st1" d="M139.57,620.67c-2.22,0-3.86,0.7-5.02,2.15l-0.08,0.1l0.14,0.14c0.58,0.58,0.96,0.96,1.15,1.17l0.12,0.14
					l0.1-0.16c0.76-1.26,1.98-1.9,3.61-1.9c3.01,0,4.74,1.87,4.74,5.13c0,0.18-0.01,0.37-0.03,0.58h-11.29h-0.77h-2.04
					c-1.1,0-1.46-0.07-1.57-0.1c-0.42-0.11-0.84-0.39-1.24-0.86c0.99-0.78,1.84-1.66,2.53-2.64c0.33-0.46,0.74-1.16,1.28-2.2
					l0.05-0.1l-0.09-0.07c-1.58-1.28-3.37-1.93-5.3-1.93c-1.69,0-3.38,0.54-5.03,1.61l-0.06,0.04l0.02,1.74l0.09,0.03
					c1.65,0.64,3.03,1.76,4.1,3.33c-0.63,0.43-1.17,0.74-1.62,0.9c-0.46,0.17-1.06,0.25-1.78,0.25h-2.54h-0.67h-3.25h-0.53h-3.39
					h-0.53h-3.39h-0.53h-3.39h-0.53h-3.39h-0.53h-3.39h-0.53h-3.39h-0.53h-3.39h-0.53h-3.39h-0.53H79.8h-0.53h-3.92v0.02h-1.96
					v-3.55c0-2.61-1.35-4.1-3.71-4.1c-1.17,0-2.16,0.46-2.96,1.36c-0.77,0.89-1.16,2.01-1.16,3.32c0,1.32,0.37,2.43,1.1,3.3
					c0.73,0.87,1.69,1.32,2.84,1.32h1.98c-0.35,1.09-1.1,1.65-2.23,1.65h-0.32v1.61l0.15-0.01c2.31-0.14,3.7-1.23,4.13-3.25h2.15
					h0.61h3.31h0.53h3.39h0.53h3.39h0.53h3.39h0.53h3.39h0.53h3.39h0.53h3.39h0.53h3.39h0.53h3.39h0.53h3.39h0.53h3.25h0.67h2.58
					c1.74,0,3.23-0.5,4.44-1.49c0.77,0.99,1.77,1.49,2.98,1.49h3.21h0.77h13.24v-2.14C146.25,623.37,143.63,620.67,139.57,620.67z
					 M71.67,628.03l-2.16,0.02c-0.73,0-1.29-0.35-1.73-1.06c-0.35-0.58-0.54-1.27-0.54-2.05c0-0.72,0.21-1.38,0.61-1.98
					c0.45-0.66,1.03-0.99,1.73-0.99c0.69,0,1.2,0.21,1.58,0.65c0.33,0.37,0.5,0.83,0.5,1.37V628.03z M126.27,625.83
					c-0.68-0.91-1.23-1.54-1.75-1.96c-0.6-0.51-1.29-0.92-2.04-1.24c2.04-1.06,3.78-1.24,5.43-0.61c0.14,0.06,0.61,0.28,1.37,0.65
					C128.57,623.88,127.58,624.92,126.27,625.83z"/>
				<rect x="148.63" y="616.59" class="st1" width="1.66" height="13.1"/>
				<path class="st1" d="M169.9,622.16c-1.34,0-2.4,0.44-3.18,1.31c-0.77,0.88-1.16,1.99-1.16,3.32c0,0.44,0.05,0.85,0.14,1.23
					h-2.46h-0.75h-3.05h-0.65h-2.62v-7.61h-1.66v7.71c0,2.22-0.81,3.21-2.64,3.21h-0.14v1.61l0.15-0.01
					c2.33-0.14,3.71-1.23,4.13-3.25h2.78h0.65h3.05h0.75h3.14c0.78,1.14,1.95,1.72,3.5,1.72c1.31,0,2.37-0.46,3.14-1.38
					c0.73-0.85,1.1-1.95,1.1-3.26c0-1.35-0.36-2.45-1.06-3.28C172.29,622.61,171.23,622.16,169.9,622.16z M169.88,629.89
					c-0.82,0-1.42-0.3-1.85-0.91c-0.37-0.54-0.55-1.25-0.55-2.1c0-0.93,0.18-1.66,0.55-2.22c0.44-0.66,1.07-0.99,1.93-0.99
					c0.8,0,1.38,0.3,1.79,0.91c0.33,0.52,0.49,1.21,0.49,2.07C172.24,628.83,171.46,629.89,169.88,629.89z"/>
				<path class="st1" d="M179.85,620.36c-2.31,0-3.92,1.85-3.92,4.5c0,2.63,1.65,4.54,3.92,4.54c0.96,0,1.69-0.27,2.18-0.81
					c-0.15,1.85-1.01,2.76-2.64,2.76h-0.14v1.61l0.15-0.01c2.98-0.16,4.31-1.73,4.31-5.07v-2.95
					C183.71,622.27,182.08,620.36,179.85,620.36z M179.86,627.87c-1.33,0-2.3-1.28-2.3-3.03c0-1.75,0.91-2.97,2.2-2.97
					c1.34,0,2.32,1.28,2.32,3.05C182.09,626.65,181.17,627.87,179.86,627.87z"/>
				<rect x="195.7" y="617.3" class="st1" width="1.68" height="1.96"/>
				<path class="st1" d="M200.63,625.75c0,3.46-1.56,5.61-4.06,5.61c-2.48,0-4.08-2.2-4.08-5.61v-5.33h-1.66v5.61
					c0,3.97,2.47,6.96,5.75,6.96c3.27,0,5.73-2.99,5.73-6.96v-5.61h-1.66V625.75z"/>
				<rect x="260.23" y="630.74" class="st1" width="1.68" height="1.96"/>
				<path class="st1" d="M278.03,625.45c0,2-0.41,2.58-1.84,2.58h-2.17c0.2-0.51,0.3-1.17,0.3-1.96v-5.65h-1.66v5.03
					c0,2.21-0.48,2.58-1.55,2.58h-2.42c0.2-0.55,0.3-1.21,0.3-1.96v-5.65h-1.66v5.2c-0.13,1.62-0.78,2.41-1.96,2.41h-1.25h-0.73
					h-1.77c0.2-0.51,0.3-1.17,0.3-1.96v-5.65h-1.66v5.03c0,0.88-0.1,1.5-0.28,1.86c-0.26,0.5-0.77,0.74-1.56,0.74h-0.81v-0.02h-3.92
					h-0.53h-3.39h-0.53h-3.39h-0.53h-3.39h-0.53h-3.39h-0.53h-3.39h-0.53h-3.39h-0.53h-3.39h-0.53h-3.39h-0.53h-3.39h-0.53h-3.92
					v0.02h-1.96v-3.55c0-2.61-1.35-4.1-3.71-4.1c-1.17,0-2.16,0.46-2.96,1.36c-0.77,0.89-1.16,2.01-1.16,3.32
					c0,1.32,0.37,2.43,1.1,3.3c0.73,0.87,1.69,1.32,2.84,1.32h1.98c-0.35,1.09-1.1,1.65-2.23,1.65h-0.32v1.61l0.15-0.01
					c2.31-0.14,3.7-1.23,4.13-3.25h2.15h0.61h3.31h0.53h3.39h0.53h3.39h0.53h3.39h0.53h3.39h0.53h3.39h0.53h3.39h0.53h3.39h0.53
					h3.39h0.53h3.39h0.53H257h0.59h5.79h0.73h12.53c2.04,0,3.07-1.22,3.07-3.63v-5.65h-1.68V625.45z M210.22,628.03l-2.16,0.02
					c-0.73,0-1.29-0.35-1.73-1.06c-0.35-0.58-0.54-1.27-0.54-2.05c0-0.72,0.21-1.38,0.61-1.98c0.45-0.66,1.03-0.99,1.73-0.99
					c0.69,0,1.2,0.21,1.58,0.65c0.33,0.37,0.5,0.83,0.5,1.37V628.03z"/>
				<path class="st1" d="M312.63,622.16c-1.34,0-2.4,0.44-3.18,1.31c-0.77,0.88-1.16,1.99-1.16,3.32c0,0.44,0.05,0.85,0.14,1.23
					h-2.34h-0.87h-1.31v-0.48c0-4.18-2.62-6.88-6.68-6.88c-2.22,0-3.86,0.7-5.02,2.15l-0.08,0.1l0.14,0.14
					c0.58,0.58,0.96,0.96,1.15,1.17l0.12,0.14l0.1-0.16c0.76-1.26,1.98-1.9,3.61-1.9c3.01,0,4.74,1.87,4.74,5.13
					c0,0.18-0.01,0.37-0.03,0.58h-11.33h-0.73h-3.17h-0.14c-0.95,0-1.12,0-1.25-0.02c-0.5-0.07-0.84-0.25-1.03-0.55
					c-0.25-0.38-0.37-1.02-0.37-1.89v-8.98h-1.7v9.81c0,1.1,0.29,1.92,0.89,2.5c0.53,0.53,1.17,0.79,1.9,0.79h1.15h0.55h3.17h0.73
					h14.59h0.87h3.02c0.78,1.14,1.95,1.72,3.5,1.72c1.31,0,2.37-0.46,3.14-1.38c0.73-0.85,1.1-1.95,1.1-3.26
					c0-1.35-0.36-2.45-1.06-3.28C315.02,622.61,313.96,622.16,312.63,622.16z M312.61,629.89c-0.82,0-1.42-0.3-1.85-0.91
					c-0.37-0.54-0.55-1.25-0.55-2.1c0-0.93,0.18-1.66,0.55-2.22c0.44-0.66,1.07-0.99,1.93-0.99c0.8,0,1.38,0.3,1.79,0.91
					c0.33,0.52,0.49,1.21,0.49,2.07C314.97,628.83,314.2,629.89,312.61,629.89z"/>
				<rect x="324.88" y="623.17" class="st1" width="5.54" height="2.02"/>
				<path class="st1" d="M347.5,625.75c0,3.46-1.56,5.61-4.06,5.61c-2.48,0-4.08-2.2-4.08-5.61v-5.33h-1.66v5.61
					c0,3.97,2.47,6.96,5.75,6.96c3.27,0,5.73-2.99,5.73-6.96v-5.61h-1.66V625.75z"/>
				<rect x="342.57" y="617.3" class="st1" width="1.68" height="1.96"/>
				<path class="st1" d="M411.16,625.45c0,0.88-0.09,1.5-0.28,1.84c-0.25,0.51-0.76,0.76-1.56,0.76h-0.93v-0.02h-3.92h-0.53h-3.39
					h-0.53h-3.39h-0.53h-3.39h-0.53h-3.39h-0.53h-3.39h-0.53h-3.39h-0.53h-3.39h-0.53h-3.39h-0.53h-3.39h-0.53h-3.39h-0.53h-3.92
					v0.02h-1.96v-3.55c0-2.61-1.35-4.1-3.71-4.1c-1.17,0-2.16,0.46-2.96,1.36c-0.77,0.89-1.16,2.01-1.16,3.32
					c0,1.32,0.37,2.43,1.1,3.3c0.73,0.87,1.69,1.32,2.84,1.32h1.98c-0.35,1.09-1.1,1.65-2.23,1.65h-0.32v1.61l0.15-0.01
					c2.31-0.14,3.7-1.23,4.13-3.25h2.15h0.61h3.31h0.53h3.39h0.53h3.39h0.53h3.39h0.53h3.39h0.53h3.39h0.53h3.39h0.53h3.39h0.53
					h3.39h0.53h3.39h0.53h3.39h0.53h3.43h0.49h1.39c2.02,0,3.05-1.22,3.05-3.63v-5.65h-1.66V625.45z M357.1,628.03l-2.16,0.02
					c-0.73,0-1.29-0.35-1.73-1.06c-0.35-0.58-0.54-1.27-0.54-2.05c0-0.72,0.21-1.38,0.61-1.98c0.45-0.66,1.03-0.99,1.73-0.99
					c0.69,0,1.2,0.21,1.58,0.65c0.33,0.37,0.5,0.83,0.5,1.37V628.03z"/>
				<rect x="408.53" y="630.76" class="st1" width="1.68" height="1.96"/>
				<rect x="411.12" y="630.76" class="st1" width="1.68" height="1.96"/>
				<path class="st1" d="M417.33,628.12c0,2.22-0.81,3.21-2.64,3.21h-0.14v1.61l0.15-0.01c2.97-0.16,4.29-1.73,4.29-5.07v-7.45
					h-1.66V628.12z"/>
				<rect x="433.28" y="617.3" class="st1" width="1.68" height="1.96"/>
				<rect x="435.88" y="617.3" class="st1" width="1.68" height="1.96"/>
				<rect x="434.55" y="615.1" class="st1" width="1.68" height="1.96"/>
				<rect x="446.94" y="617.3" class="st1" width="1.68" height="1.96"/>
				<rect x="444.34" y="617.3" class="st1" width="1.68" height="1.96"/>
				<path class="st1" d="M468.68,625.45c0,2-0.41,2.58-1.84,2.58h-2.17c0.2-0.51,0.3-1.17,0.3-1.96v-5.65h-1.66v5.03
					c0,2.21-0.48,2.58-1.55,2.58h-2.42c0.2-0.55,0.3-1.21,0.3-1.96v-5.65h-1.66v5.2c-0.13,1.62-0.78,2.41-1.96,2.41h-1.27h-0.71
					h-3.19h-0.55h-1.95c0.2-0.51,0.3-1.17,0.3-1.96v-5.65h-1.66v5.03c0,0.88-0.1,1.5-0.28,1.86c-0.26,0.5-0.77,0.74-1.56,0.74h-0.75
					v-0.02h-3.12c0.21-0.53,0.32-1.2,0.32-1.96v-5.65h-1.66v5.03c0,2-0.41,2.58-1.84,2.58h-2.17c0.2-0.51,0.3-1.17,0.3-1.96v-5.65
					h-1.66v5.03c0,2.21-0.48,2.58-1.55,2.58h-2.42c0.2-0.55,0.3-1.21,0.3-1.96v-5.65h-1.68v5.21c0,1.55-0.69,2.4-1.94,2.4h-1.25
					h-0.14c-0.95,0-1.12,0-1.25-0.02c-0.5-0.07-0.84-0.25-1.03-0.55c-0.25-0.38-0.37-1.02-0.37-1.89v-8.98h-1.7v9.81
					c0,1.1,0.29,1.92,0.89,2.5c0.53,0.53,1.17,0.79,1.9,0.79h0.97h0.73h17.72h0.65h5.91h0.55h3.19h0.71h12.55
					c2.04,0,3.07-1.22,3.07-3.63v-5.65h-1.68V625.45z"/>
				<rect x="472.74" y="616.59" class="st1" width="1.66" height="13.1"/>
			</g>
		</g>
	</g>
</g>
</svg>
